<?xml version="1.0" encoding="utf-8"?>
<!-- Generator: Adobe Illustrator 16.0.0, SVG Export Plug-In . SVG Version: 6.00 Build 0)  -->
<!DOCTYPE svg PUBLIC "-//W3C//DTD SVG 1.1//EN" "http://www.w3.org/Graphics/SVG/1.1/DTD/svg11.dtd">
<svg version="1.1" id="Layer_1" xmlns="http://www.w3.org/2000/svg" xmlns:xlink="http://www.w3.org/1999/xlink" x="0px" y="0px"
	 width="1000px" height="454.737px" viewBox="0 0 1000 454.737" enable-background="new 0 0 1000 454.737" xml:space="preserve">
<g>
	<rect x="407.482" y="358.095" width="11.029" height="64.792"/>
	<path d="M430.106,422.887v-46.485h10.773v6.388c3.589-3.939,8.842-7.269,15.939-7.269c7.786,0,10.854,3.063,12.697,7.618
		c3.667-4.029,9.179-7.618,16.279-7.618c9.464,0,13.571,5.688,13.571,14.005v33.361h-10.767v-30.653
		c0-5.149-1.486-7.515-6.559-7.515c-4.386,0-7.884,2.449-11.916,6.031v32.137h-10.773v-30.653c0-5.149-1.483-7.515-6.565-7.515
		c-4.292,0-7.88,2.449-11.906,6.031v32.137H430.106z"/>
	<path d="M506.244,411.68c0-10.066,8.577-16.81,30.291-19.265v-1.394c0-4.645-2.448-6.652-7.618-6.652
		c-6.478,0-11.725,3.148-15.663,6.303l-5.26-6.743c4.987-4.561,12.787-8.408,22.413-8.408c12.438,0,16.732,5.946,16.732,16.816
		v19.161c0,5.61,0.343,9.024,1.302,11.389h-10.856c-0.609-1.918-1.05-3.33-1.05-5.953c-4.729,4.813-10.235,6.652-17.153,6.652
		C511.848,423.586,506.244,419.383,506.244,411.68 M536.535,409.931v-10.248c-12.865,1.763-19.692,4.911-19.692,9.977
		c0,3.686,2.539,5.609,6.478,5.609C528.826,415.269,533.128,413.17,536.535,409.931"/>
	<path d="M552.069,429.539c0-4.631,2.889-7.961,7.618-9.801c-2.358-1.218-3.589-3.161-3.589-5.693c0-3.505,2.798-6.395,6.303-8.493
		c-4.729-2.979-7.353-7.708-7.353-13.396c0-9.548,7.353-16.628,19.524-16.628c6.388,0,11.116,2.092,14.265,4.903
		c2.993-2.371,7.722-4.217,11.569-4.561v8.765c-2.111,0-5.078,0.253-8.155,1.218c1.056,1.658,1.671,3.848,1.671,6.303
		c0,9.724-7.274,16.552-19.35,16.552c-2.63,0-4.21-0.356-6.478-0.966c-1.399,0.79-2.364,1.749-2.364,2.974
		c0,1.84,1.224,2.455,5.331,2.805l8.233,0.525c13.753,0.874,19.181,4.554,19.181,12.696c0,9.542-9.639,14.18-23.994,14.18
		C558.456,440.921,552.069,436.283,552.069,429.539 M588.935,427.706c0-3.329-2.364-4.56-11.828-5.169l-8.052-0.519
		c-0.959,0-1.84-0.104-2.792-0.272c-3.077,1.4-4.309,3.596-4.309,5.96c0,4.107,4.742,5.423,14.187,5.423
		C584.024,433.129,588.935,431.023,588.935,427.706 M584.109,392.506c0-5.779-3.317-8.934-9.445-8.934
		c-5.96,0-9.458,3.246-9.458,8.934c0,5.693,3.589,8.758,9.536,8.758C580.611,401.264,584.109,398.199,584.109,392.506"/>
	<path d="M605.654,358.97h11.025v9.366h-11.025V358.97z M605.738,376.395h10.863v46.492h-10.863V376.395z"/>
	<path d="M627.55,422.887v-46.485h10.767v7.437c3.504-4.029,8.926-8.317,16.635-8.317c8.492,0,13.746,4.379,13.746,13.564v33.802
		h-10.767v-30.731c0-5.071-2.099-7.695-7.002-7.695c-4.729,0-8.674,2.352-12.612,6.037v32.39H627.55z"/>
	<path d="M676.03,399.683c0-17.685,12.521-24.162,22.142-24.162c10.43,0,20.405,6.219,20.405,25.128v2.539h-31.78
		c0.446,8.402,5.609,12.081,12.424,12.081c6.063,0,9.549-2.021,13.047-5.429l5.694,5.61c-4.801,5.338-11.2,8.408-19.519,8.408
		C686.797,423.858,676.03,416.759,676.03,399.683 M708.691,395.129c-0.621-7.094-4.119-10.851-10.598-10.851
		c-5.26,0-10.073,2.967-11.122,10.851H708.691z"/>
	<path d="M723.863,399.683c0-17.685,12.515-24.162,22.142-24.162c10.416,0,20.405,6.219,20.405,25.128v2.539h-31.781
		c0.435,8.402,5.604,12.081,12.425,12.081c6.051,0,9.542-2.021,13.047-5.429l5.688,5.61c-4.807,5.338-11.207,8.408-19.512,8.408
		C734.629,423.858,723.863,416.759,723.863,399.683 M756.512,395.129c-0.609-7.094-4.113-10.851-10.585-10.851
		c-5.26,0-10.08,2.967-11.129,10.851H756.512z"/>
	<path d="M774.132,422.887v-46.485h10.766v7.618h0.182c2.889-4.651,7.877-8.499,16.726-8.499h0.7l-0.356,9.892
		c-0.512-0.084-2.28-0.175-2.896-0.175c-6.905,0-11.285,3.239-14.355,8.227v29.423H774.132z"/>
	<path d="M806.768,358.97h11.024v9.366h-11.024V358.97z M806.845,376.395h10.863v46.492h-10.863V376.395z"/>
	<path d="M829.427,422.887v-46.485h10.767v7.437c3.504-4.029,8.926-8.317,16.635-8.317c8.492,0,13.753,4.379,13.753,13.564v33.802
		h-10.773v-30.731c0-5.071-2.099-7.695-7.002-7.695c-4.729,0-8.674,2.352-12.612,6.037v32.39H829.427z"/>
	<path d="M875.361,429.539c0-4.631,2.896-7.961,7.625-9.801c-2.365-1.218-3.589-3.161-3.589-5.693c0-3.505,2.798-6.395,6.296-8.493
		c-4.729-2.979-7.346-7.708-7.346-13.396c0-9.548,7.346-16.628,19.524-16.628c6.374,0,11.116,2.092,14.258,4.903
		c2.986-2.371,7.722-4.217,11.563-4.561v8.765c-2.099,0-5.079,0.253-8.137,1.218c1.05,1.658,1.658,3.848,1.658,6.303
		c0,9.724-7.268,16.552-19.343,16.552c-2.63,0-4.217-0.356-6.49-0.966c-1.394,0.79-2.358,1.749-2.358,2.974
		c0,1.84,1.23,2.455,5.338,2.805l8.227,0.525c13.753,0.874,19.188,4.554,19.188,12.696c0,9.542-9.646,14.18-24,14.18
		C881.755,440.921,875.361,436.283,875.361,429.539 M912.228,427.706c0-3.329-2.371-4.56-11.816-5.169l-8.058-0.519
		c-0.972,0-1.84-0.104-2.812-0.272c-3.058,1.4-4.289,3.596-4.289,5.96c0,4.107,4.735,5.423,14.187,5.423
		C907.317,433.129,912.228,431.023,912.228,427.706 M907.414,392.506c0-5.779-3.323-8.934-9.464-8.934
		c-5.953,0-9.445,3.246-9.445,8.934c0,5.693,3.589,8.758,9.529,8.758C903.909,401.264,907.414,398.199,907.414,392.506"/>
	<path d="M753.642,242.717c0,0,1.601-2.403,2.954-4.217c2.442-3.346,6.873-7.942,10.203-10.792c1.023-0.872,2.234-1.859,2.234-1.859
		s-1.892,0.194-2.96,0.405c-2.526,0.499-6.232,2.963-8.085,4.564c-3.063,2.607-6.438,6.88-4.91,10.649
		C753.305,241.998,753.642,242.717,753.642,242.717 M770.646,247.271c4.839-0.324,9.367-1.724,13.577-4.068
		c4.133-2.307,10.21-6.809,9.588-12.114c-0.207-1.717-1.321-3.006-2.747-3.622c-1.833-0.796-2.798-0.657-5.149,0.026
		c-1.717,0.512-2.481,0.816-4.095,1.746c-4.741,2.75-11.472,8.641-15.112,13.354c-0.843,1.089-1.697,2.346-2.358,3.193
		c-0.428,0.519-0.758,0.992-0.712,1.134C763.78,247.446,768.762,247.395,770.646,247.271 M758.345,256.308
		c-0.499,0.519-1.03,1.808-1.574,2.714c-0.285,0.499-0.842,1.134-1.198,1.381c-1.25,0.938-2.313,0.978-3.53-0.098
		c-1.71-1.49-2.695-3.842-2.76-6.09c-0.025-1.01,0.13-2.079-0.059-2.921c-0.298-1.412-1.71-2.851-2.468-4.198
		c-0.894-1.605-1.619-4.353-1.704-6.146c-0.304-5.556,2.611-10.683,6.446-14.728c3.835-4.075,8.849-7.482,14.31-9.792
		c5.163-2.183,12.716-3.647,18.378-1.697c1.865,0.635,4.418,2.216,5.713,3.838c0.272,0.359,0.499,0.739,0.777,0.904
		c0.253,0.158,0.92,0.227,1.438,0.317c1.813,0.317,4.418,1.684,5.48,2.607c2.124,1.83,3.304,3.595,3.835,6.144
		c1.095,5.153-1.866,10.792-5.241,14.219c-5.778,5.907-11.472,10.054-18.87,12.956c-3.238,1.27-8.298,2.455-11.983,2.124
		c-1.141-0.091-2.319-0.401-3.428-0.485c-0.569-0.033-2.649-0.577-2.869-0.732C758.766,256.431,758.416,256.23,758.345,256.308
		 M582.101,271.479c3.07-0.175,4.976-0.33,7.372-1.366c1.321-0.563,2.863-1.853,2.105-3.395c-0.454-0.946-2.08-1.27-3.032-1.205
		c-3.213,0.221-5.519,2.585-6.62,5.739C581.881,271.375,581.894,271.492,582.101,271.479 M595.536,263.543
		c1.788,2.255,2.604,4.885,2.798,7.761c0.201,2.902-0.726,5.701-2.345,7.929c-2.772,3.777-7.41,5.637-12.068,5.992
		c-0.635,0.046-4.438,0.149-5.409-0.136c-0.168-0.064-0.285-0.136-0.382-0.123c-0.11,0.013-0.745,2.637-0.861,3.563
		c-0.415,3.206-0.92,5.474-1.296,8.013c-0.311,2.002-0.531,4.152-0.713,6.296c-1.049,12.496-0.687,18.676,0.356,30.9
		c0.071,0.738,0.11,1.6,0,2.118c-0.285,1.483-1.186,2.494-2.61,2.856c-4.308,1.141-8.435-3.135-10.559-6.556
		c-4.924-7.974-3.317-24.267-1.879-32.324c0.57-3.33,2.092-10.728,3.142-13.403c0.551-1.438,1.451-4.249,1.387-4.372
		c-0.052-0.136-2.326-0.998-4.393-1.788c-0.771-0.278-3.388-1.652-4.495-2.345c-2.3-1.432-3.867-2.617-5.461-4.405
		c-0.492-0.557-2.1-2.947-2.332-3.485c-1.289-2.915-1.36-5.467-0.221-8.57c0.292-0.803,1.892-4.152,2.954-4.055
		c1.535,0.143,1.198,2.688,1.606,3.997c0.116,0.453,0.558,1.218,0.894,1.606c2.125,2.513,9.251,5.286,12.166,6.16
		c0.421,0.123,4.975,1.516,5.648,1.198c0.182-0.071,1.05-1.619,1.601-2.559c0.304-0.519,0.635-0.9,1.004-1.296
		c2.772-2.999,6.879-5.817,10.947-6.659c1.801-0.362,5.338-0.064,7.113,0.952C592.53,261.043,593.858,261.562,595.536,263.543
		 M552.419,298.965c0.117,0.013,0.324,0.091,0.499,0.155c2.092,0.92,2.092,4.651,1.574,6.426c-1.348,4.632-5.739,9.406-9.244,11.771
		c-2.093,1.412-6.368,3.395-9.438,3.984c-4.794,0.906-9.03-0.356-11.596-4.236c-2.318-3.498-3.342-7.839-3.523-11.913
		c-0.531-11.719,3.161-28.82,7.709-38.589c0.608-1.309,3.614-7.411,6.413-8.402c2.772-0.979,3.996,2.268,4.269,4.723
		c0.362,3.122-0.654,7.281-1.432,10.637c-1.399,5.869-3.407,15.067-3.887,17.697c-0.499,2.786-1.658,8.745-1.23,11.797
		c0.207,1.606,0.505,2.436,1.749,2.325c0.557-0.052,8.421-3.653,12.696-5.272C548.597,299.47,550.605,298.828,552.419,298.965
		 M494.257,293.575c0,0,0.897,0.025,1.817,0c2.941-0.032,7.848-0.577,7.848-0.577s-0.55-4.32-0.994-7.093
		c-0.298-1.84-0.544-2.979-0.942-4.444c-0.178-0.66-0.622-2.513-1.095-3.226c-0.091-0.149-0.217-0.298-0.217-0.298
		s-2.368,4.586-3.696,7.773c-1.063,2.526-1.594,4.418-2.329,5.953c-0.172,0.356-0.373,0.842-0.392,1.276
		C494.231,293.226,494.257,293.575,494.257,293.575 M478.516,294.074c0,0,1.416-3.168,2.51-5.545
		c1.153-2.521,6.963-14.207,9.357-17.523c2.668-3.68,7.747-10.637,7.783-10.851c0.11-0.771,0.285-2.144,0.994-3.232
		c0.551-0.854,1.931-1.224,3.255-1.309c1.48-0.091,3.006,0.998,3.673,2.222c1.276,2.307,3.46,8.882,3.926,10.449
		c2.559,8.738,5.306,25.096,6.212,33.504c0.233,2.196,0.953,13.694,1.03,16.272c0.039,1.813,0,4.833-1.056,6.322
		c-0.396,0.558-1.121,1.036-1.833,1.011c-0.966-0.025-2.909-1.367-3.758-2.164c-2.357-2.215-3.912-4.47-4.411-7.229
		c-0.434-2.397-1.043-9.29-1.043-9.29l-10.254,0.396l-5.704,0.11c0,0-0.551,1.314-0.981,2.436c-0.962,2.377-1.82,4.755-2.183,6.089
		c-0.751,2.682-2.196,8.014-2.536,8.836c-0.716,1.762-1.351,2.76-3.051,2.999c-1.875,0.247-3.177,0.383-4.528-0.362
		c-2.562-1.406-3.728-4.366-4.159-7.424c-0.765-5.228,1.344-9.426,3.514-15.605c0.91-2.61-0.34-3.479-2.5-6.854
		c-0.292-0.44-0.57-0.894-0.632-1.23c-0.064-0.35,0.266-1.257,0.739-1.619c0.139-0.123,0.185-0.137,0.457-0.162L478.516,294.074z
		 M419.972,260.305c0,0-0.133-3.297-0.412-5.137c-0.233-1.562-0.544-2.74-1.289-3.939c-0.807-1.302-1.432-2.131-2.717-2.325
		c-1.587-0.233-2.455,0.843-3.443,2.403c-1.309,2.093-2.607,5.985-3.385,8.46c-1.114,3.505-1.584,5.662-2.187,9.646
		c-0.975,6.53-1.985,17.659-0.91,25.219c0.191,1.303,0.519,3.22,0.519,3.22s1.577-1.775,2.724-3.006
		c0.492-0.544,2.834-4.042,3.038-4.418c0.405-0.706,1.487-2.552,1.639-2.935c0.227-0.395,1.911-4.01,2.209-4.865
		c0.57-1.619,1.386-4.119,2.031-6.102c1.486-4.612,1.221-6.31,2.183-11.395c0.113-0.596,0.197-4.807,0.09-4.826H419.972z
		 M408.775,308.817c0,0,0.622,1.102,1.114,1.911c2.727,4.561,7.09,7.151,12.356,7.424c5.393,0.259,12.318-2.851,16.266-5.61
		c11.304-7.851,17.241-22.005,20.477-35.563c3.809-15.91,3.987-32.688-0.563-48.092c-2.627-8.937-7.767-20.12-14.135-26.806
		c-1.892-1.995-4.791-4.709-5.613-5.804c-0.874-1.141-1.075-2.109,0.233-2.867c1.386-0.807,4.424,0.835,5.943,1.759
		c7.43,4.512,12.279,9.001,16.678,15.462c1.107,1.646,5.571,8.976,6.38,10.514c4.995,9.406,7.553,17.626,8.927,28.004
		c1.72,13.234,0.619,28.27-3.964,41.523c-1.999,5.83-5.089,11.829-8.314,16.868c-0.755,1.199-5.438,7.488-6.021,8.11
		c-1.613,1.697-5.587,5.157-7.449,6.653c-9.306,7.469-19.375,12.354-30.407,11.006c-6.077-0.745-11.058-2.76-15.92-6.711
		c-1.865-1.522-5.017-4.729-6.277-6.996c-0.81-1.451-1.83-3.239-1.969-3.252c-0.139-0.039-0.677,0.337-1.273,0.751
		c-0.512,0.337-2.695,1.354-3.854,1.788c-7.569,2.838-16.052,2.177-23.006-2.345c-5.046-3.265-9.318-9.483-11.197-15.094
		c-2.786-8.344-3.009-17.005-1.875-25.879c1.931-15.062,7.355-29.345,15.45-41.971c5.101-7.958,11.718-15.832,19.615-21.471
		c0.887-0.638,5.71-3.443,6.692-3.9c1.778-0.829,4.146-1.606,5.525-0.146c0.709,0.762,0.684,1.374,0.152,2.375
		c-0.836,1.551-2.977,3.66-4.159,4.926c-1.02,1.102-6.847,8.247-8.045,9.905c-1.321,1.792-7.246,10.646-8.013,12.013
		c-7.469,12.927-13.399,33.416-12.829,49.3c0.12,3.284,0.609,8.014,1.347,11.091c1.001,4.152,3.469,9.781,7.178,12.398
		c3.913,2.772,7.527,2.617,12.204,0.752c1.247-0.5,3.012-1.303,3.012-1.303s-1.36-3.485-2.251-6.102
		c-2.458-7.301-3.439-18.922-2.533-26.916c0.745-6.582,2.203-11.596,5.169-16.816c2.374-4.159,5.545-8.266,9.522-11.66
		c3.828-3.266,9.959-6.122,15.346-6.245c4.477-0.116,9.105,1.827,11.466,5.895c4.075,7.094,4.34,18.249,3.187,25.627
		c-1.733,11.122-7.492,21.578-15.81,28.658C414.553,304.522,408.775,308.817,408.775,308.817 M764.939,267.702
		c0.233,0.052,0.576,0.143,0.868,0.259c2.598,0.985,3.66,3.395,4.295,6.019c1.489,6.122,2.111,19.635,2.37,24.934
		c0.169,3.964,0.272,7.89,0.441,11.803c0.142,3.329,0.401,7.767-0.279,10.87c-0.266,1.127-1.01,2.429-2.079,3.096
		c-1.244,0.791-4.042,0.842-5.571,0.531c-3.796-0.803-5.026-3.226-5.57-6.97c-1.283-8.959-0.674-26.534,0.09-33.944
		c0.247-2.436,1.18-10.274,2.462-13.564C762.394,269.633,763.32,267.404,764.939,267.702 M648.098,281.145
		c0,0-5.616,0.395-9.483,0.822c-4.91,0.524-14.142,2.125-19.486,4.042c-1.593,0.563-4.845,1.917-5.123,3.563
		c-0.292,1.71,0.758,3.044,1.937,4.417c0.674,0.791,4.534,4.496,5.609,5.403c4.521,3.776,13.701,9.606,20.471,12.424
		c2.306,0.973,6.153,2.346,6.153,2.346s-0.284-10.948-0.232-21.714C647.968,286.773,648.098,281.145,648.098,281.145
		 M751.019,285.484c0.317,2.947-0.44,8.505-0.57,9.237c-0.246,1.671-1.522,5.577-1.723,6.05c-1.037,2.378-2.041,4.321-3.116,6.238
		c-1.847,3.317-6.226,8.564-8.823,10.813c-9.658,8.362-24.609,13.117-37.448,14.679c-8.7,1.043-18.702,0.894-27.933-0.816
		c-3.168-0.577-7.903-1.665-7.903-1.665s0.02,1.898-0.13,3.227c-0.077,0.596-0.544,2.202-0.79,2.721
		c-0.674,1.386-1.762,2.099-3.368,2.416c-1.931,0.356-3.99,0.473-5.778-0.285c-2.922-1.237-3.984-3.997-4.482-7.146
		c-0.422-2.539-0.855-6.938-0.855-6.938s-2.189-1.043-4.029-1.95c-5.61-2.778-10.947-6.121-15.611-9.574
		c-1.296-0.959-6.854-5.616-8.085-6.782c-3.434-3.245-6.517-6.511-8.881-10.682c-1.833-3.252-2.352-6.142-0.966-9.588
		c1.918-4.806,8.811-8.428,13.539-10.494c3.459-1.528,14.232-5.04,18.702-5.694c2.104-0.304,5.383-0.881,5.59-1.029
		c0.078-0.052,0.143-0.11,0.201-0.182c0.097-0.136,0.271-4.897,0.239-6.646c-0.038-1.71,1.27-12.949,1.691-15.333
		c0.214-1.276,1.191-6.229,2.189-7.54c0.647-0.868,1.807-0.804,2.727-0.227c5.144,3.187,6.698,14.264,7.074,19.894
		c0.233,3.427,0.35,8.589,0.35,8.589s5.882-0.174,9.503-0.084c3.518,0.091,7.392,0.648,11.052,1.244
		c4.677,0.738,13.791,2.721,19.013,5.377c4.301,2.176,8.337,5.85,9.639,9.742c1.212,3.576,1.037,6.044-0.816,9.264
		c-2.079,3.615-6.011,6.336-9.988,6.556c-1.192,0.064-5.649-0.519-7.016-1.594c-0.544-0.421-0.512-1.179-0.123-1.697
		c0.143-0.207,2.229-1.282,3.459-1.943c0.609-0.337,1.14-0.699,1.606-1.134c1.023-0.906,1.943-1.885,1.84-3.057
		c-0.143-1.51-1.736-2.43-3.252-3.045c-7.146-2.818-21.39-5.189-28.282-5.591c-2.688-0.155-6.523-0.285-6.523-0.285l0.816,38.013
		c0,0,3.167,0.608,5.668,1.017c1.425,0.221,7.501,0.752,9.107,0.804c12.296,0.324,26.003-0.771,37.287-6.103
		c4.949-2.325,9.497-5.228,12.924-9.153c4.527-5.195,6.911-12.308,6.283-19.731c-0.68-8.11-6.394-17.736-10.954-23.599
		c-12.049-15.502-32.688-28.244-50.858-35.707c-18.546-7.608-36.865-12.007-56.558-12.729c-5.072-0.201-16.131,0.064-21.728,1.604
		c-0.79,0.22-1.6,0.505-2.345,0.67c-0.583,0.133-1.503,0.519-1.762,0.729c-0.13,0.12-0.272,0.259-0.272,0.259
		s0.35,0.191,0.674,0.347c0.583,0.243,3.083,0.411,4.379,0.641c1.153,0.22,2.352,0.823,2.824,1.678
		c0.454,0.797,0.519,1.428-0.025,2.105c-1.27,1.545-6.051,1.286-8.143,0.939c-2.177-0.35-4.892-1.014-5.396-2.912
		c-0.57-2.242,0.486-4.431,1.633-6.452c2.306-4.075,5.609-6.17,10.448-7.505c6.88-1.875,15.566-3.197,22.051-3.44
		c14.692-0.573,28.6,2.001,42.832,6.319c8.143,2.468,18.825,6.601,26.617,10.355c5.61,2.714,14.446,7.67,19.396,10.925
		c1.567,1.037,10.728,7.761,12.14,8.942c2.967,2.43,6.854,5.915,9.665,8.688c5.422,5.396,12.191,13.655,15.481,20.197
		c0.784,1.562,1.387,3.109,2.41,4.937c0.363,0.622,1.853,4.341,2.099,5.416s0.609,2.63,0.661,2.694
		C750.357,281.06,751.063,284.26,751.019,285.484 M814.32,288.257c0.272,0.026,0.33,0.039,0.609,0.084
		c4.488,0.596,8.888,1.412,12.269,2.928c3.136,1.374,4.962,3.123,6.634,6.245c2.552,4.729,2.714,11.35,0.428,16.35
		c-1.724,3.744-5.5,6.867-8.953,8.538c-3.575,1.736-7.1,2.553-11.142,3.006c-7.074,0.777-14.718-0.674-21.079-3.757
		c-3.764-1.847-8.356-5.014-10.676-9.076c-1.71-2.999-1.646-6.893,0.428-9.723c3.304-4.535,10.378-5.52,15.715-5.338
		c4.081,0.148,11.395,1.425,15.263,2.785c1.075,0.383,5.014,1.931,5.713,2.637c0.479,0.486,0.804,1.198,0.57,1.859
		c-0.881,2.707-7.437,4.133-9.328,4.418c-5.065,0.764-7.702-1.153-13.474-3.427c-1.426-0.563-3.337-1.179-4.807-1.315
		c-2.604-0.246-5.759,0.479-6.258,3.33c-0.26,1.483,1.477,2.85,2.798,3.439c3.084,1.334,5.598,1.795,8.642,1.846
		c8.991,0.137,19.097-1.327,26.443-6.542c1.017-0.726,1.995-1.788,2.008-3.09c0-0.194-0.246-1.606-0.699-1.756
		c-0.065-0.026-0.13,0.013-0.201-0.013c-0.162-0.039-0.434-0.506-0.681-0.804c-0.53-0.654-2.655-1.567-3.07-1.749
		c-4.962-2.06-14.108-3.063-18.824-3.459c-4.962-0.421-12.736-1.082-14.614-1.341c-1.918-0.278-4.004-0.667-5.682-1.419
		c-1.664-0.751-3.304-2.436-3.789-4.314c-0.861-3.375,0.239-7.514,2.118-10.215c4.903-7.068,16.408-9.756,25.024-10.818
		c8.305-1.03,21.778-1.018,29.934,3.323c1.264,0.661,1.911,1.296,1.64,2.643c-0.519,2.54-2.43,4.172-4.729,4.897
		c-2.416,0.758-7.437,1.063-9.626,1.191c-9.865,0.57-21.778,0.272-31.158,2.831c-0.726,0.214-2.002,0.558-2.41,1.018
		c-1.471,1.587,2.714,2.054,3.628,2.241c0.259,0.059,0.311,0.071,0.583,0.091L814.32,288.257z M845.064,325.109
		c-3.99-1.444-4.871-7.877-5.065-11.123c-0.622-10.578,2.176-25.309,5.713-35.22c1.018-2.837,2.488-7.437,5.636-7.178
		c2.189,0.188,3.731,1.879,4.949,3.589c3.122,4.393,7.217,10.365,9.95,14.504c3.045,4.664,5.953,9.335,8.823,13.578
		c0.337,0.512,0.68,1.01,1.075,1.328c0.499,0.427,0.984,0.44,1.191,0.058c0.098-0.161-0.09-5.499-0.227-6.588
		c-0.214-1.685-0.317-3.077-0.512-4.548c-0.544-4.275-1.897-10.286-2.954-14.361c-1.186-4.554-2.636-9.295-3.698-13.7
		c-0.344-1.438-0.654-2.883-0.654-4.243c0-1.969,1.27-3.051,3.329-2.326c4.036,1.426,9.406,10.21,10.974,13.268
		c0.519,1.023,2.637,6.258,3.122,7.734c1.659,5.027,2.683,9.801,3.143,15.281c0.446,5.331,0.084,13.104-2.184,18.352
		c-0.822,1.943-2.52,4.548-3.938,5.856c-2.202,2.04-6.627,3.653-9.671,1.917c-3.33-1.878-8.791-11.361-9.724-12.981
		c-3.188-5.545-8.642-16.383-9.483-17.594c-0.208-0.285-0.428-0.531-0.843-0.661c-0.33-0.097-0.453,0.57-0.544,1.018
		c-0.531,3.142-0.92,17.918-0.927,18.326c-0.084,2.468-0.213,8.576-0.938,11.563c-0.467,1.969-0.927,3.576-2.734,4.405
		C847.591,325.938,846.619,325.686,845.064,325.109 M899.919,324.184c-0.421-0.331-1.114-1.057-1.632-1.607
		c-0.078-0.084-1.51-2.241-1.801-2.896c-0.246-0.557-0.428-0.972-0.609-1.45c-1.296-3.369-1.263-6.686-0.557-10.281
		c0.687-3.375,1.309-3.518,3.044-8.155c0.098-0.259,0.169-0.473,0.208-0.751c0.064-0.623-0.972-4.898-1.018-6.271
		c-0.071-2.099,1.548-3.569,4.269-3.867c0.247-0.02,0.435-0.013,0.609-0.059c1.088-0.271,1.775-2.345,2.377-4.016
		c0.811-2.339,2.105-5.908,2.105-5.908s-3.42-0.79-5.272-1.49c-2.054-0.771-3.602-1.774-4.528-3.653
		c-1.107-2.202-0.376-3.427,1.911-4.146c0.849-0.26,7.527-1.549,9.626-1.84c2.63-0.376,5.104-0.726,7.605-1.03
		c2.176-0.271,12.14-1.418,15.32-1.334c4.839,0.143,7.974,2.124,10.805,6.219c1.522,2.196,2.559,4.8,0.272,6.206
		c-3.544,2.144-14.951,2.299-17.044,2.325c-3.343,0.026-7.955-0.026-7.955-0.026l-2.325,7.761c0,0,8.182-0.064,12.794-0.097
		c1.102,0,2.229,0.059,2.851,0.194c2.357,0.531,3.161,2.325,3.265,4.93c0.123,3.044-0.447,4.45-2.876,4.845
		c-1.257,0.208-15.314,0.272-17.225,0.499c-1.186,0.136-2.442,0.331-2.442,0.331s-1.011,2.643-1.886,5.324
		c-0.913,2.785-1.664,5.623-1.664,5.623s0.726,0.039,1.309,0.039c0.997,0,1.981-0.13,2.772-0.272
		c4.301-0.784,10.662-1.723,15.909-2.559c2.799-0.44,4.211-0.654,5.694,1.225c1.276,1.651,1.956,3.031,2.04,5.014
		c0.078,1.872-1.347,3.122-3.109,4.457c-5.519,4.236-14.977,8.822-22.024,9.606c-3.252,0.369-4.042,0.006-6.88-0.745
		c-0.544-0.143-2.526-1.05-2.513-1.153C901.345,325.174,900.295,324.455,899.919,324.184 M988.803,285.102
		c-3.628,3.045-8.305,9.244-10.546,12.438c-2.974,4.263-5.778,9.147-8.467,12.931c-0.597,0.835-2.313,3.88-2.268,3.99
		c0.13,0.207,1.879,0.143,3.653-0.169c3.822-0.647,9.018-3.31,11.79-5.531c4.224-3.382,7.171-8.033,8.551-13.487
		c0.622-2.462,0.933-7.644-0.822-9.944C990.351,284.869,989.482,284.545,988.803,285.102 M960.021,329.547
		c0,0-1.141,3.375-1.982,6.018c-1.464,4.561-4.651,16.85-5.402,20.671c-1.114,5.662-4.275,20.49-4.451,20.82
		c-0.213,0.421-0.355,0.563-0.913,0.9c-1.296,0.771-1.813,0.512-3.395-0.324c-2.053-1.075-3.86-2.195-5.415-4.21
		c-3.07-4.017-2.345-11.596-1.736-16.046c2.125-15.509,4.263-22.368,10.184-37.818c0.091-0.253,0.091-0.311-0.026-0.557
		c-1.84-3.913-2.824-8.655-2.824-12.483c0.007-12.113,6.971-24.098,14.77-33.724c0.583-0.745,4.418-5.325,6.167-5.241
		c1.749,0.085,2.027,2.119,1.769,3.822c-0.881,5.604-4.819,11.291-7.515,16.007c-3.019,5.28-3.686,7.463-5.149,12.296
		c-0.246,0.758-0.843,4.275-0.816,4.741c0.064,1.289,0.337,2.928,0.337,2.928s4.936-6.892,8.175-11.154
		c1.788-2.319,3.058-3.861,4.535-5.546c1.496-1.697,7.268-7.682,8.945-9.27c3.479-3.323,5.033-4.716,8.811-6.672
		c2.986-1.549,5.681-1.938,8.596,0c4.625,3.045,6.64,9.457,7.165,14.672c0.615,6.245-0.661,13.248-3.408,18.579
		c-3.258,6.349-7.722,10.935-13.765,14.951c-6.2,4.106-13.455,6.898-20.567,6.724C961.154,329.605,960.021,329.547,960.021,329.547"
		/>
	<path fill-rule="evenodd" clip-rule="evenodd" fill="#FDD0AD" d="M194.962,172.406c-1.519-3.025-4.266-6.242-7.689-8.904
		c-6.847-5.357-14.893-6.766-17.892-2.925c-3.002,3.854,0.314,11.304,7.151,16.651c6.847,5.345,15.774,6.893,18.786,3.045
		c0.981-1.247,1.189-2.899,0.804-4.732C195.976,174.521,195.584,173.452,194.962,172.406 M186.635,137.15
		c7.132,4.064,14.86,11.343,21.083,22.611c-0.904,1.01-1.713,2.092-2.436,3.246c0.159-1.487-2.322-6.76-6.5-10.646
		c-5.399-5.011-11.987-7.583-14.533-4.949c-2.562,2.652,0.101,8.531,5.406,13.633c4.677,4.521,10.666,7.022,13.785,5.363
		c-1.626,3.602-2.468,7.482-2.322,11.058c0.146,3.106,1.432,1.985,1.419-0.026c-0.317-8.425,5.373-17.977,13.467-21.111
		c1.208,4.622,3.557,8.35,6.779,9.153c4.191,1.039,7.735-1.195,10.167-4.904c13.892,18.66-17.452,80.125-67.302,50.586
		c1.581-0.829,3.087-0.975,5.626-0.907c1.127,0.013,1.108-0.797,0-0.956c-8.343-1.156-11.913,1.901-11.576,10.174
		c-0.013,1.5,0.625,1.813,0.936,0.12c0.278-2.203,0.803-3.958,1.574-5.332c2.666,25.452,31.858,29.809,39.295,5.633
		c3.336-0.758,6.439-1.879,9.36-3.333c-1.917,3.365-4.055,6.847-7.353,10.43c0.677-1.441,1.714-3.961,2.251-5.678
		c-12.709,24.791-31.229,22.886-49.876,2.015c0.829,1.752,1.843,3.442,3.044,5.043c-28.736-5.076-19.589-39.451,11.223-31.136
		c-19.703-11.201-27.959-22.653-29.426-31.956c6.157-7.867,13.367-14.757,20.532-19.819c3.197,0.457,6.465,1.691,9.545,3.835
		c-2.423-2.542-3.994-4.855-4.836-6.893C173.767,137.778,181.184,135.631,186.635,137.15"/>
	<path fill-rule="evenodd" clip-rule="evenodd" d="M297.53,152.904c-9.267-13.153-23.197-4.836-21.141,6.766
		c1.367-1.781,2.659-3.521,3.462-4.596c-0.337,0.152-0.703,0.34-1.063,0.544c-0.768,0.431-1.551,0.087-0.589-0.749
		c12.622-8.576,19.667,10.073,13.027,18.926c-0.117,0.158-0.217,0.278-0.324,0.323c-0.204,0.107-0.337-0.045-0.379-0.171
		c-0.026-0.087-0.026-0.188-0.026-0.233c0.683-1.639,1.088-3.171,1.292-4.697c-2.06,2.601-4.039,5.153-5.71,7.297
		C296.422,179.697,306.664,165.893,297.53,152.904 M87.676,281.656c1.256,1.496,2.341,2.953,3.397,4.294
		c0.994,1.276,1.956,2.449,3.012,3.427c3.362-4.975-6.714-22.672-15.531-15.779C81.781,275.638,84.838,278.3,87.676,281.656
		 M176.542,223.219c5.999-3.43,12.532,0.968,13.917,8.917c3.868-1.957,7.113-6.501,8.438-11.508
		c-10.222,1.83-21.425-0.129-34.896-7.55c0.324,2.565,0.875,4.678,1.73,6.818C170.181,219.034,173.624,220.181,176.542,223.219
		 M179.065,227.484c0.065,0.285,0.098,0.518,0.065,0.703c-0.02,0.171-0.107,0.359-0.317,0.392c-0.185,0.02-0.359-0.087-0.463-0.21
		c-0.126-0.136-0.246-0.34-0.353-0.593c-2.063-5.053-7.077-6.313-11.229-5.471c4.829,9.452,14.64,13.497,22.585,10.326
		c-2.154-7.07-7.615-10.102-11.634-7.78C178.256,225.628,178.712,226.509,179.065,227.484 M228.265,281.099
		c1.279,8.208,5.856,14.563,6.552,15.456c1.613-0.687,0.612-6.659-2.785-11.543C230.843,283.314,229.619,281.656,228.265,281.099
		 M198.93,298.809c-0.172,0.545-0.191,0.777-0.146,0.888c0.023,0.059,0.088,0.104,0.327,0.137c1.348-0.706,2.938-1.866,4.628-3.421
		c3.576-3.271,7.204-7.786,9.127-11.906C207.789,287.609,200.372,294.449,198.93,298.809 M217.943,278.08
		c-0.013-0.583-0.476-2.203-0.638-2.695c-8.408,0.078-33.598,4.379-53.346,15.269C181.232,282.692,208.537,278.514,217.943,278.08
		 M218.448,280.678c-0.752,0.013-1.474,0.039-2.229,0.084c-0.803,5.732-5.811,13.033-10.715,17.517
		c-2.594,2.37-5.519,4.016-7.695,4.456c-2.857,0.57-3.45-1.205-3.349-4.392c0.055-0.428,0.146-0.745,0.246-0.946
		c0.12-0.181,0.298-0.35,0.538-0.271c0.343,0.116,0.512,0.68,0.519,1.198c-0.068,1.847,0.424,2.241,1.107,2.235
		c-0.473-0.603-0.428-1.478-0.113-2.455c1.862-5.669,11.621-13.455,17.021-15.916c0.14-0.441,0.246-0.869,0.317-1.283l-0.518,0.032
		c-5.305,1.328-12.881,6.147-18.66,12.314c-6.354,6.763-9.364,14.167-5.344,17.905C200.271,321.145,218.791,292.895,218.448,280.678
		 M226.387,277.225c-0.21-5.895-5.976-5.636-7.013-2.883c1.652,3.013,1.089,7.709,0.885,9.135
		C223.488,284.117,226.559,282.083,226.387,277.225 M70.292,405.345c0.774,0.227,1.451,0.674,1.458,1.114
		c0.006,0.305-0.259,0.467-0.563,0.498c-0.311,0.039-0.761-0.006-1.374-0.161c-31.622-7.916-55.136,15.262-44.497,29.578
		c1.931-2.604,5.455-4.354,10.083-4.218c0.583,0.02,1.101,0.312,1.056,0.791c-0.049,0.446-0.619,0.706-1.441,0.706
		c-6.572-0.506-16.396,12.489,5.678,17.218c8.133,1.756,14.468-0.596,17.727-3.899c3.255-3.278,3.401-7.229-0.074-9.717
		c-0.438-0.285-0.716-0.531-0.868-0.745c-0.139-0.214-0.191-0.479,0-0.667c0.305-0.272,0.956-0.155,1.493,0.148
		c4.729,3.382,4.868,8.661,1.438,12.587c9.341,0.959,13.685-2.604,16.917-7.269c2.633-3.809,4.097-7.087,6.021-10.027
		c1.95-2.96,4.393-5.552,8.924-7.948c1.988-1.03,4.146-2.034,6.196-3.148c2.028-1.107,3.932-2.313,5.419-3.731
		c2.879-2.76,4.159-6.368,1.558-11.86c-0.749,1.017-1.286,2.021-1.552,3.044c-0.146,0.667-0.34,1.114-0.544,1.374
		c-0.214,0.271-0.473,0.389-0.751,0.213c-0.389-0.246-0.528-1.068-0.389-1.781c0.496-1.995,1.895-3.978,3.546-5.921
		c1.646-1.937,3.563-3.867,5.15-5.778c3.103-3.822,4.768-7.481,0.489-11.161l-2.115,0.654c0.152,0.57-0.107,1.257-0.405,1.82
		c-0.188,0.343-0.385,0.667-0.57,0.952c-0.188,0.271-0.353,0.486-0.454,0.635c-1.033,1.412-2.73,3.148-4.577,5.001
		c-1.571,1.567-3.469,3.446-5.267,5.441c-1.785,1.956-3.417,4.029-4.476,5.999c0.803,2.85,1.665,4.807,3.304,4.93
		c0.696,0,1.325,0.175,1.425,0.544c0.081,0.271-0.146,0.446-0.359,0.524c-0.224,0.084-0.57,0.143-1.02,0.155
		c-2.002-0.161-3.424-1.58-4.551-3.472c-0.563-0.959-1.063-2.061-1.526-3.2c-0.457-1.153-0.894-2.358-1.334-3.563
		c-1.762-4.852-3.488-9.133-7.317-8.498l-1.108,0.246c-6.863,1.671-13.14,3.115-18.154,4.832c-4.784,1.652-8.363,3.537-10.17,6.037
		C58.204,403.298,64.135,403.79,70.292,405.345 M186.751,400.907c2.899-4.774,17.461-11.058,30.395-11.278
		c-6.73-9.159-33.147-0.44-46.745,11.621l-0.22,0.156c-0.123,0.078-0.272,0.194-0.408,0.232c-0.062,0.033-0.155,0.072-0.252,0.053
		c-0.162-0.026-0.24-0.156-0.233-0.299c0.013-0.155,0.165-0.401,0.412-0.738c5.678-6.406,15.767-12.813,25.652-15.786
		c2.293-5.682-0.69-8.493-9.95-5.564c-9.334,2.967-21.581,11.647-30.261,22.88c-0.246,0.311-0.454,0.505-0.632,0.615
		c-0.165,0.11-0.392,0.188-0.557,0.02c-0.139-0.117-0.152-0.324-0.12-0.492c0.026-0.182,0.101-0.402,0.22-0.59
		c1.639-2.701,3.443-5.195,5.357-7.482c-3.307-3.73-4.071-9.082-3.135-13.992c0.058-0.311,0.133-0.531,0.21-0.692
		c0.042-0.071,0.075-0.136,0.133-0.201c0.055-0.032,0.14-0.104,0.259-0.091c0.12,0.007,0.172,0.104,0.214,0.169
		c0.032,0.052,0.052,0.136,0.058,0.207c0.013,0.155,0,0.337-0.045,0.563c-0.101,1.58,0.152,3.375,0.628,5.137
		c1.095-1.477,3.463-4.741,6.177-8.615c-3.634-5.221-8.113-4.937-11.395-1.697c-3.518,3.434-6.627,10.662-3.631,22.996
		c0.068,0.441,0.087,0.843,0.049,1.146c-0.029,0.266-0.126,0.558-0.321,0.668c-0.133,0.064-0.272,0.039-0.375-0.026
		c-0.12-0.058-0.214-0.168-0.292-0.291c-0.162-0.259-0.34-0.681-0.505-1.276c-0.512-2.099-0.891-4.094-1.134-5.96
		c-0.842,1.925-1.911,3.745-2.993,5.559c-1.202,2.008-2.407,4.042-3.336,6.231c-1.785,4.211-0.159,6.4,3.9,7.773
		c4.305,1.471,10.831,2.261,17.905,2.203c4.292-0.026,8.263,0.602,12.185,1.482c3.913,0.888,7.754,2.066,11.78,3.155
		c7.382,1.982,15.204,3.543,25.52,0.57c-3.1-3.006-2.575-7.32,3.919-8.991c0.589-0.156,1.014-0.24,1.302-0.24
		c0.136,0,0.256,0.02,0.362,0.071c0.114,0.052,0.201,0.162,0.201,0.312c-0.022,0.116-0.094,0.213-0.155,0.271
		c-0.071,0.078-0.179,0.148-0.272,0.207c-0.21,0.117-0.476,0.227-0.78,0.305c-6.024,3.174-4.651,6.16,0,7.948
		c5.159,1.97,14.021,2.112,23.262-1.444c16.784-6.472,9.248-19.323-7.025-15.365c-1.901,0.44-2.348-0.253-0.389-1.303
		c0.975-0.35,1.943-0.654,2.87-0.854c-7.058-14.109-36.338-7.489-46.758,0.958c-0.285,0.26-0.485,0.415-0.651,0.479
		c-0.185,0.078-0.405,0.046-0.476-0.168c-0.039-0.143-0.013-0.285,0.026-0.362C186.719,401.004,186.751,400.907,186.751,400.907
		 M176.371,351.086c-0.084,2.52,2.947,5.823,14.17,2.824c9.351-2.487,15.427-8.9,15.602-13.137
		C198.36,346.85,188.922,350.387,176.371,351.086 M145.951,388.418c-0.343-7.379,1.487-12.639,4.609-15.702
		c4.36-4.27,10.481-3.479,14.74,2.054c4.791-6.932,10.151-15.035,11.495-18.43c-1.836-1.082-2.785-2.728-2.646-4.762
		c-12.104,9.859-24.976,18.093-36.39,23.139c-7.987,3.544-15.822,6.465-23.703,9.018c0.214,0.168,0.424,0.369,0.658,0.609
		c3.397,3.42,2.733,6.646,0.57,9.671c-1.059,1.51-2.494,2.979-3.987,4.438c-1.444,1.405-2.957,2.792-4.249,4.198
		c0.223,0.323,0.424,0.647,0.615,0.978c12.457-3.213,24.901-7.126,36.814-11.744C145.069,390.737,145.578,389.604,145.951,388.418
		 M225.046,291.411c1.062,6.491,3.397,12.004,6.057,15.534c3.469,4.612,7.783,4.729,9.393,3.213
		c3.07-2.876,5.075-21.584-9.957-31.087c-0.02-0.007-1.16-0.829-1.898-1.069c-0.013,0.44-0.045,0.998-0.084,1.387
		c0.512,0.252,1.228,0.777,1.817,1.225c0.657,0.498,1.188,0.951,1.188,0.951c3.521,3.148,6.222,7.91,6.054,12.432
		c-0.065,1.729-0.703,2.883-1.817,3.498c1.095,0.875,2.063,1.075,2.41-0.654c0.185-0.803,0.356-1.373,0.515-1.717
		c0.081-0.162,0.162-0.298,0.24-0.389c0.101-0.084,0.266-0.162,0.431-0.032c0.106,0.078,0.158,0.22,0.175,0.343
		c0.032,0.137,0.045,0.305,0.058,0.519c0.013,0.37-0.026,0.9-0.12,1.51c-0.881,4.495-3.621,3.614-5.646,1.762
		c-3.495-3.174-5.869-9.924-7.025-15.573c-0.661,0.739-1.464,1.276-2.387,1.62c0.006,0.531,0.026,1.043,0.055,1.555
		C224.735,288.114,224.913,289.76,225.046,291.411 M222.992,291.781c-0.327-2.08-0.518-4.237-0.567-6.484
		c-0.722,0.045-1.464-0.026-2.222-0.169c-0.749,19.667-19.9,44.244-42.453,63.444C207.714,345.488,224.204,322.44,222.992,291.781
		 M62.755,159.706c-0.411-4.563-0.797-9.195-0.35-13.759l0.02-0.227l0.23,0.055c5.487,1.348,11.504,0.463,17.108-0.486
		c-4.191-2.578-12.376-7.868-14.381-11.381c-1.525-2.702-0.829-16.331-0.551-21.368c-1.506,1.759-3.673,4.266-5.61,6.821
		c-2.138,2.779-4.016,5.564-4.531,7.427l-0.923,0.156c-1.153,0-2.879-1.056-4.431-2.216c-1.6-1.176-3.103-2.523-3.893-3.226
		c-1.049-0.956-2.076-1.905-2.938-2.728c0.642,3.874,2.141,12.778,3.456,18.083C50.722,144.479,56.306,152.176,62.755,159.706
		 M48.229,96.229c0.424,2.821,0.748,5.697,0.91,7.336c2.717-4.748,4.583-10.187,5.312-15.615l0.026-0.217l0.227,0.052
		c4.392,1.169,9.969,1.037,14.607,0.829c-10.627-7.818-19.43-16.23-25.824-20.742c-1.276-0.894-2.442-1.665-3.537-2.315
		c1.406,3.582,3.848,10.245,3.158,12.159c-0.589,1.15-2.973,2.461-5.38,3.556c-2.076,0.943-4.252,1.759-5.558,2.248
		c4.495,1.069,8.949,2.753,13.166,4.57c0.424,0.139,0.709,0.447,0.861,0.651C47.046,89.855,47.723,93.039,48.229,96.229
		 M105.593,121.882c5.393,1.053,10.831-0.755,13.678-5.911c-10.932-3.965-20.23-8.463-28.458-13.18
		C91.219,113.836,98.371,120.463,105.593,121.882 M113.62,169.018c5.441,4.749,9.425,11.437,11.216,19.09
		c3.151-9.911,8.804-19.534,15.596-27.845c4.677-5.733,9.911-10.828,15.223-14.993c3.139-2.461,6.335-4.583,9.448-6.293
		c10.274-5.671,20.02-7.025,25.756-1.334c6.145-12.797-9.61-31.787-37.273-17.724c-16.344,8.324-38.618,28.23-44.27,45.935
		C110.847,166.803,112.272,167.846,113.62,169.018 M142.158,122.812c-5.613-1.354-10.867-2.841-15.809-4.425
		c1.043,13.212-10.216,24.186-24.351,21.711c-16.516-2.88-25.394-20.597-13.419-38.521c-5.904-3.588-11.284-7.209-16.331-10.825
		c-1.911,0.104-4.405,0.224-6.394,0.243c-3.145,0.049-6.866-0.02-9.487-0.463c-1.14,5.976-3.265,10.886-6.322,15.806
		c-0.684,1.102-2.74,2.118-3-0.482c-0.217-2.31-0.515-5.215-0.835-7.456c-0.165-1.208-0.988-6.98-1.775-8.204
		c-0.797-0.334-3.391-1.422-6.349-2.462c-3.618-1.295-7.796-2.533-10.513-2.64c-0.726-0.062-1.208-0.188-1.493-0.373
		c-0.314-0.213-0.386-0.499-0.266-0.791c0.191-0.476,0.894-0.887,1.418-1.065c0.962-0.392,3.311-1.124,6.766-2.536
		c1.202-0.47,5.969-2.433,6.98-3.521c0.078-1.866-2.497-8.71-4.12-12.849c-2.999-1.26-5.221-1.234-7.07,0.113
		c-8.93,6.465-5.532,35.055,12.515,66.677c-1.02-5.241-1.995-11.116-2.601-14.944c-0.259-1.62,1.289-1.759,2.271-0.771
		c3.488,3.469,8.616,8.333,11.103,9.422c2.011-4.201,8.457-11.676,12.463-16.22c0.722-0.823,1.898-0.463,1.797,0.81
		c-0.424,6.792-1.205,21.52,0.049,23.722c1.875,3.323,10.912,9.008,16.23,12.159c0.942,0.557,1.063,1.775-0.729,2.102
		c-2.057,0.385-4.936,0.887-7.291,1.179c-3.576,0.431-7.887,0.758-11.097,0.308c-0.14,4.596,0.298,9.412,0.81,14.109
		c2.368,2.659,4.849,5.279,7.427,7.867c5.62-5.6,13.043-9.007,21.229-9.007c4.635,0,9.026,1.092,12.988,3.064
		C112.518,145.043,127.735,131.958,142.158,122.812 M166.223,142.479c0.849,1.976,2.361,4.21,4.716,6.672l-0.259,0.305
		c-3.025-2.109-6.228-3.323-9.367-3.787c-7.097,5.021-14.268,11.874-20.363,19.673c1.48,9.189,9.691,20.57,29.306,31.716
		l-0.14,0.373c-29.896-8.049-40.007,25.231-11.653,30.65c-1.076-1.49-2.012-3.044-2.76-4.654l0.33-0.233
		c18.595,20.813,36.921,22.641,49.566-1.976l0.35,0.159c-0.411,1.318-1.107,3.096-1.723,4.524c2.633-3.038,4.47-5.992,6.128-8.861
		c-2.721,1.299-5.61,2.325-8.684,3.028c-7.515,24.107-36.464,19.854-39.593-5.121c-0.576,1.254-1,2.802-1.253,4.684
		c-0.074,0.431-0.165,0.758-0.292,0.975c-0.106,0.182-0.301,0.393-0.544,0.314c-0.201-0.049-0.327-0.285-0.392-0.499
		c-0.074-0.239-0.107-0.55-0.1-0.942c-0.324-8.411,3.349-11.547,11.803-10.374c0.547,0.074,1.007,0.337,1.007,0.735
		c0.007,0.424-0.479,0.618-1.036,0.612c-2.354-0.068-3.773,0.071-5.186,0.735c49.238,28.843,80.19-31.521,66.878-50.246
		c-2.462,3.602-6.012,5.791-10.229,4.735c-3.278-0.81-5.646-4.538-6.88-9.069c-7.887,3.178-13.432,12.558-13.108,20.83
		c0,0.995-0.298,1.917-0.784,2.122c-0.311,0.139-0.583-0.084-0.742-0.418c-0.146-0.33-0.259-0.874-0.298-1.651
		c-0.133-3.463,0.622-7.191,2.128-10.673c-3.368,1.241-9.079-1.334-13.539-5.626c-5.26-5.072-8.117-11.103-5.425-13.908
		c2.714-2.814,9.48-0.042,14.825,4.927c3.748,3.462,6.17,8.088,6.53,10.164c0.622-0.923,1.292-1.805,2.027-2.646
		c-6.202-11.151-13.85-18.342-20.907-22.388C181.226,135.857,173.938,137.934,166.223,142.479 M233.075,312.296
		c-3.929-2.94-6.536-8.253-7.854-11.757c-0.632,15.813-6.397,29.552-17.16,38.718c0.939,4.25-2.669,9.413-8.029,13.124
		c-1.451,3.699-3.978,8.467-6.458,12.788c22.913-17.49,35.441-36.51,40.403-52.251C233.678,312.724,233.373,312.529,233.075,312.296
		 M259.168,175.723c2.76-3.097,5.493-3.242,7.67-0.376c1.823,2.407,3.132,6.812,4.026,12.072
		c1.798,10.621,1.778,25.208,0.045,37.212c-0.126,0.573-0.369,1.121-0.641,1.25c-0.107,0.045-0.233,0.032-0.327-0.081
		c-0.078-0.081-0.097-0.178-0.11-0.285c-0.029-0.208,0-0.531,0.071-0.975c2.189-11.683,0.47-26.355-1.286-36.742
		c-0.904-5.234-2.151-9.153-3.608-11.071c-1.101-1.467-2.209-1.823-4.087,0.457c-18.3,22.034-32.338,35.288-44.338,44.292
		c6.931,5.033,8.791,14.66,6.931,23.139c0.69,0.667,1.36,1.58,1.999,2.662c5.221-7.56,15.482-15.09,29.497-16.438
		c1.46,0,2.594,0.24,2.786,0.657c0.081,0.188-0.013,0.34-0.117,0.431c-0.12,0.094-0.285,0.159-0.499,0.213
		c-0.417,0.114-1.056,0.172-1.976,0.172c-3.492,0.337-6.918,1.321-10.145,2.721c1.62,18.248,10.138,22.019,14.893,20.632
		c11.689-3.427,18.28-24.036,20.039-45.183c2.209-26.857-2.28-40.478-7.854-45.073c-5.862-6.303-20.409,0.664-22.533,20.881
		C253.678,181.867,257.072,178.094,259.168,175.723 M41.734,390.044c-0.894,0-1.467-0.065-1.811-0.194
		c-0.347-0.13-0.59-0.389-0.379-0.726c0.259-0.408,1.228-0.738,2.144-0.765c8.059-0.201,15.508-2.034,22.465-5.014
		c2.381-1.03,4.722-2.177,7.006-3.479c1.697-0.952,3.368-1.988,5.014-3.07c-35.693,0.006-76.721,18.812-73.695,30.297
		c1.133,4.301,8.9,7.08,22.857,7.572c5.189-5.247,13.455-9.334,23.482-10.669c1.574-4.411,6.102-6.983,11.894-8.855
		c5.853-1.885,13.043-3.097,20.013-4.768c19.716-4.741,37.339-10.824,55.985-19.097c29.824-13.222,69.258-47.127,79.257-75.267
		c-6.5,12.671-19.311,25.704-28.224,17.128c-5.6-5.384-0.359-14.938,5.671-21.377c3.832-4.056,8.415-7.554,12.774-9.925
		c-16.914,2.578-39.191,8.247-51.243,15.534c-5.121,3.232-10.579,8.629-16.376,15.715c-6.987,8.52-13.854,17.789-21.05,26.871
		c-7.21,9.082-14.763,17.982-23.123,25.82C79.977,379.368,63.26,389.564,41.734,390.044 M147.774,244.939
		c-0.217,0.07-0.382,0.084-0.509,0.077c-0.113-0.007-0.308-0.077-0.295-0.304c0-0.124,0.088-0.234,0.168-0.312
		c0.091-0.084,0.217-0.182,0.363-0.272c4.677-2.222,10.145-1.833,15.936-0.246c5.775,1.588,11.958,4.386,18.109,6.99
		c12.343,5.234,24.483,9.678,33.49,2.591c10.831-8.771,7.058-28.784-4.603-32.461c-2.898,4.056-6.607,8.412-10.468,11.803
		c-0.904,1.292-1.885,2.439-2.918,3.434c4.907,0.473,10.141-0.654,13.034-6.863c0.796-1.714,1.606-0.619,1.228,0.482
		c-3.09,9.228-10.792,9.425-16.616,8.373c-10.824,7.718-25.831,2.063-34.414-7.854c-0.696-0.033-1.38-0.081-2.057-0.126
		c-0.139,1.545-1.38,2.753-2.621,3.669c-1.513,1.134-3.139,2.135-4.709,3.136c-1.587,1.011-3.064,2.024-4.324,3.181
		c-2.523,2.332-4.107,5.279-3.492,10.047c0.152,1.141,0.34,1.956,0.466,2.436c6.041-1.717,12.402-3.699,18.958-6.069l0.861-0.317
		c-0.563-0.201-1.114-0.383-1.665-0.545C155.444,243.76,150.741,243.592,147.774,244.939 M88.771,105.697
		c-8.47,15.58-0.292,29.724,13.626,32.15c12.907,2.251,23.143-8.007,21.571-20.237c-0.849-0.285-1.678-0.57-2.507-0.861
		c-3.291,6.322-9.898,8.642-16.324,7.375C97.542,122.63,90.237,116.152,88.771,105.697 M97.561,312.775
		c-5.367-0.129-10.5-3.498-13.38-7.695c-3.31,2.675-9.895,4.482-14.932,1.878c1.241,19.272,10.28,28.924,18.945,27.02
		C93.042,332.89,97.897,324.844,97.561,312.775 M64.388,301.718c-1.228,0.681-2.43,1.555-3.602,2.559l-0.013,1.127
		c0,21.637,9.095,39.282,20.153,42.651c1.218,0.323,2.406,0.453,3.588,0.427c8.875-0.466,17.458-9.366,21.801-20.191
		c0.152-0.369,0.292-0.745,0.447-1.114c1.956-5.351,2.856-10.928,2.338-16.149c-0.084-0.894,0.201-1.542,0.732-1.562
		c0.519-0.006,0.927,0.545,1.007,1.303c0.246,2.273,0.259,4.677,0.045,7.125c14.164-28.34,35.881-40.085,54.554-45.669
		c1.063-0.317,1.872-0.207,1.956,0.401c0.101,0.538-0.508,1.089-1.38,1.348c-1.583,0.531-3.216,1.225-4.9,1.892
		c-0.214,0.506-0.405,1.063-0.583,1.685c-0.188,0.641-0.353,1.334-0.544,2.041c-0.392,1.412-0.878,2.908-1.727,4.146
		c-1.755,2.559-3.229,5.584-2.215,8.765c15.647-10.449,44.299-19.603,61.585-19.395c2.267-4.418,9.053-3.46,10.685,1.852
		c0.525-0.913,0.57-3.433,0.386-6.127c-0.208-2.929-0.651-5.863-0.784-6.543c-1.192-6.129-3.019-12.386-4.927-15.657
		c-1.114,3.491-3.106,6.672-6.083,9.075c-6.708,5.293-15.19,4.813-24.046,2.268c-8.784-2.553-17.985-7.197-26.216-10.423
		c-1.134,0.434-2.254,0.842-3.378,1.25c-28.263,10.235-52.814,13.37-65.291,17.659c0.622,0.705,1.173,1.398,1.639,2.04
		c0.496,0.693,0.943,1.335,1.286,1.82c0.994,1.62,1.791,3.329,1.785,3.945c-0.006,0.175-0.094,0.434-0.385,0.396
		c-0.185-0.033-0.376-0.182-0.603-0.383c-0.45-0.421-1.169-1.25-2.177-2.623c-4.139-5.682-9.279-8.973-14.698-8.973
		c-4.891,0-9.564,2.701-13.474,7.404c1.785,0.629,3.518,1.406,5.234,2.339c8.758-7.353,18.653,1.84,20.221,10.436
		c1.198,2.902,2.154,6.206,2.818,9.698c1.299,0.323,2.772,0.505,4.496,0.492c9.555-0.085,8.797,17.419-3.867,19.53
		c0.029,20.703-10.679,27.731-24.256,23.146c-0.791-0.227-1.273-0.46-1.552-0.693c-0.266-0.232-0.385-0.544-0.133-0.797
		c0.343-0.343,1.312-0.33,2.135,0.072c2.108,0.725,4.039,1.074,5.823,1.088c-8.761-1.853-15.19-12.334-15.734-30.485
		C65.715,304.043,64.983,303,64.388,301.718 M97.302,291.689c-0.211-1.172-0.45-2.313-0.729-3.4
		c-0.259,0.803-0.619,1.58-1.101,2.273C96.048,290.978,96.644,291.359,97.302,291.689 M84.776,351.889
		c-14.824,0.531-25.982-21.668-26.287-45.48c-2.183,2.189-4.292,4.715-6.348,7.171c-1.059,1.295-2.109,2.565-3.158,3.757
		c-1.04,1.198-2.076,2.313-3.09,3.277c-4.033,3.874-8.026,5.662-12.059,1.348c-1.487,1.057-3.139,1.795-5.043,2.1
		c-9.451,1.444-11.78-13.494-3.355-23.049c-3.216,0.615-6.248-0.155-8.83-3.434c-5.075-6.478,2.05-14.478,10.549-19.731
		c12.178-7.527,27.758-12.392,41.834-8.499c4.347-5.59,9.785-9.16,15.848-8.952c5.208,0.161,8.797,2.086,11.33,4.269
		c8.914-3.297,24.849-5.798,44.205-11.058l-0.379-2.229c-1.14-7.89,3.615-12.359,8.107-15.375c0.689-0.467,2.666-1.506,4.463-2.708
		c1.717-1.134,3.145-2.342,3.317-3.278c-14.666-1.691-25.85-8.217-33.212-17.649c-5.134,11.838-16,20.059-28.703,20.059
		c-17.711,0-31.868-16.007-31.868-35.476c0-9.286,3.226-17.769,8.505-24.117C25.549,129.166,12.872,72.189,27.937,61.284
		c4.518-3.268,10.494,0.22,16.862,4.719c6.52,4.603,14.825,11.871,25.698,19.813c5.898,4.292,12.538,8.791,20.059,13.167
		c14.702,8.519,32.659,16.538,54.907,21.785c1.704-1.03,3.414-2.005,5.066-2.932c26.171-14.701,51.946-1.765,42.236,21.504
		c5.875,4.576,11.45,10.549,16.026,19.038c1.969-2.05,3.88-3.342,6.507-4.392c-1.571-9.313,1.179-21.021,10.533-20.218
		c11.634,1.021,12.875,15.33,8.697,24.405c10.057,12.389,1.512,43.373-20.166,56.675c-0.69,1.286-1.564,2.705-2.552,4.204
		c0.774,0.252,1.513,0.557,2.222,0.888c8.722-5.59,22.624-19.819,33.28-31.262c1.451-23.888,17.396-33.391,26.504-25.831
		l1.144-1.312c-1.979-6.672,0.084-12.046,3.951-15.006c-0.538-3.913,0.551-6.73,2.222-9.114c0.858-1.199,1.866-2.293,2.879-3.35
		c1.014-1.053,2.057-2.102,2.999-3.196c2.387-2.773,2.753-3.754,0.531-6.958c-0.835-1.195-1.904-2.456-2.898-3.735
		c-1.017-1.309-1.992-2.675-2.64-4.094c-1.289-2.866-1.214-5.943,2.419-9.183c9.001-8.003,28.895,6.355,22.647,20.02
		c1.221,0.175,2.329,0.745,3.417,1.532c0.583,0.427,1.172,0.917,1.762,1.448c0.593,0.524,1.208,1.095,1.833,1.678
		c2.5,2.335,5.393,4.917,9.545,6.196c23.009,7.116,31.217,14.044,28.444,25.313c2.886,2.607,5.153,5.386,7.009,9.38
		c4.036,8.729-2.261,16.551-10.242,11.501c-0.9,0.923-2.063,1.532-3.388,1.792c-3.987,0.758-9.898-1.069-14.601-5.273
		c-7.132-6.387-11.508-6.203-16.114-5.798c-2.652,0.233-5.021,0.476-7.349,0.305c-2.287-0.159-4.515-0.69-6.931-1.963
		c-3.255,4.638-8.914,7.116-15.647,4.956c-1.127,1.438-2.122,2.831-2.818,3.819c1.237,7.498,1.59,17.088,0.609,29.05
		c-1.727,20.749-8.645,44.539-22.083,48.451c-6.938,2.034-16.635-6.192-17.559-23.259c-7.841,3.822-13.665,9.682-15.913,14.371
		c3.615,8.59,5.678,22.66,3.388,25.938c17.189,9.964,16.039,32.001,11.576,36.198c-1.69,1.574-3.627,1.943-5.577,1.438
		c-5.746,17.076-20.185,37.417-45.465,55.651c-1.843,3.071-3.378,5.487-4.007,6.459c7.336-1.522,13.856,0.376,11.21,8.007
		c8.894-2.054,17.345-1.089,21.876,5.584c7.53,0.434,14.222,3.238,17.183,10.073c14.109-1.303,21.604,13.836,3.462,20.807
		c-9.626,3.712-21.208,3.142-26.407,0.719c-9.102,3.92-21.792,2.812-29.678,0.688c-3.894-1.037-7.67-2.501-11.482-3.654
		c-3.79-1.179-7.65-2.034-11.734-1.911c-10.614,0.331-29.332,0.486-23.521-13.222c0.515-1.25,1.198-2.474,1.95-3.718
		c0.622-1.043,1.299-2.093,1.989-3.148c-10.666,4.042-21.665,7.502-32.681,10.417c3.475,10.027-6.417,14.879-14.993,18.449
		c-4.337,1.801-6.818,4.638-8.836,7.929c-2.027,3.329-3.569,7.093-6.063,10.694c-3.919,5.655-9.483,8.597-21.092,6.783
		c-4.373,3.148-11.906,5.195-19.544,3.563c-12.735-2.733-16.629-10.43-14.28-16.026c-6.303-6.284-6.145-13.915-1.571-20.399
		c-12.512-1.133-21.024-4.527-22.475-10.06c-4.02-15.249,37.604-34.456,78.962-33.128c6.721-2.708,21.095-17.128,34.032-34.009
		c9.001-11.758,16.603-21.947,23.188-29.876c6.523-7.852,12.055-13.539,16.969-16.324c-1.752-4.703,1-9.121,2.753-11.687
		c1.26-1.84,1.646-4.068,1.733-5.532c-17.533,7.307-37.76,21.352-49.375,51.597c-4.026,11.757-12.548,22.2-22.812,23.119
		C85.415,351.863,85.104,351.889,84.776,351.889 M66.146,300.889c4.534,6.225,13.325,5.643,17.211,2.844
		c-0.57-1.05-1.007-2.15-1.26-3.239c-0.114-0.622-0.126-1.095-0.065-1.425c0.052-0.298,0.204-0.596,0.515-0.609
		c0.486-0.013,0.917,0.752,1.143,1.724c1.234,5.357,8.457,10.63,15.181,9.976c5.82-0.557,8.586-4.379,9.137-8.045
		c0.563-3.725-1.156-7.133-4.12-7.094c-7.511,0.059-11.19-2.669-15.398-8.376c-0.907-1.218-1.778-2.462-2.698-3.653
		c-0.923-1.205-1.873-2.364-2.925-3.459c-10.874-11.227-29.322-10.274-43.895-4.904c-14.718,5.422-24.914,15.062-20.198,21.086
		c3.729,4.768,8.703,2.856,15.149-1.075c2.436-1.483,4.975-3.161,7.822-4.769c2.867-1.619,6.057-3.135,9.772-4.313
		c1.374-0.298,2.449-0.214,2.685,0.298c0.152,0.305-0.064,0.622-0.379,0.842c-0.317,0.246-0.835,0.479-1.551,0.661
		c-3.673,0.907-7.515,3.135-11.388,5.584c-1.937,1.204-3.88,2.487-5.811,3.666c-1.924,1.173-3.835,2.268-5.714,3.109
		c-12.59,10.87-4.913,33.757,8.943,13.863c5.189-7.45,9.71-13.856,18.672-17.905c1.183-0.44,2.209-0.563,2.507-0.11
		c0.188,0.278-0.006,0.603-0.262,0.855c-0.288,0.278-0.784,0.583-1.474,0.907c-5.286,2.325-9.027,6.335-12.324,10.617
		c-1.652,2.138-3.165,4.353-4.677,6.432c-1.486,2.041-2.999,3.959-4.618,5.61c2.215,2.183,4.453,1.898,6.854,0.239
		c1.24-0.861,2.526-2.072,3.854-3.511c1.341-1.444,2.714-3.097,4.152-4.787c5.736-6.782,12.551-14.581,21.186-13.118
		c0.418,0.13,0.758,0.285,0.969,0.461c0.207,0.155,0.379,0.369,0.353,0.615c-0.048,0.259-0.298,0.382-0.563,0.414
		c-0.278,0.052-0.657,0.026-1.133-0.09C69.832,299.885,67.963,300.156,66.146,300.889 M299.811,151.586
		c4.703,6.705,4.531,14.394,1.613,19.868c2.403,1.224,4.499,1.489,6.556,1.373c2.154-0.12,4.224-0.638,6.471-0.878
		c4.593-0.482,9.84,0.14,17.666,7.227c4.055,3.673,9.367,5.053,12.816,4.401c3.203-0.622,5.234-3.165,3.139-8.781
		c-1.587-4.191-7.842-10.303-21.866-13.639c-0.541-0.039-0.907-0.476-0.926-0.91c-0.007-0.496,0.424-0.855,1.146-0.761
		c14.329,3.423,22.07,9.671,23.813,14.375c1.169,3.077,1.228,6.17-0.097,8.217c5.065,2.542,10.338-1.231,6.898-8.674
		c-4.405-9.558-15.178-19.158-26.209-21.05c-0.45-0.064-0.777-0.197-0.975-0.389c-0.214-0.201-0.247-0.466-0.12-0.684
		c0.259-0.392,0.949-0.612,1.684-0.479c8.127,2.125,15.185,6.089,19.146,10.786c0.933-8.748-6.798-15.003-28.881-22.514
		c-3.557-1.215-6.177-3.547-8.57-5.724c-1.189-1.088-2.322-2.144-3.504-3.006c-1.127-0.835-2.261-1.486-3.515-1.83
		c-0.524,0.81-1.182,1.603-1.93,2.374c-0.331,0.266-0.616,0.418-0.842,0.473c-0.233,0.045-0.466,0.006-0.583-0.201
		c-0.207-0.343,0.065-0.861,0.476-1.24c10.546-10.323-7.906-28.516-17.211-21.254c-4.188,3.277-2.702,6.461-0.214,9.817
		c1.24,1.693,2.727,3.391,3.786,5.095c1.088,1.72,1.791,3.495,1.422,5.321c-0.285,1.412-1.182,2.64-2.335,3.806
		c-1.114,1.163-2.507,2.297-3.822,3.531c-2.533,2.394-4.716,5.108-4.133,9.14C287.049,141.707,294.366,143.871,299.811,151.586
		 M29.41,421.092l-0.272-0.291c8.357-10.352,32.299-13.247,44.15-1.405c0.175,0.175,0.278,0.376,0.34,0.544
		c0.046,0.162,0.046,0.362-0.133,0.473c-0.285,0.207-0.751-0.013-1.188-0.369C61.071,411.498,41.867,412.257,29.41,421.092
		 M196.319,175.512c0.382,1.862,0.185,3.576-0.842,4.881c-3.132,4.013-12.233,2.342-19.064-2.996
		c-6.834-5.354-10.323-12.937-7.2-16.937c3.139-4.013,11.339-2.468,18.196,2.873c3.424,2.691,6.189,5.917,7.734,8.981
		C195.782,173.365,196.187,174.456,196.319,175.512 M321.829,155.266c-3.064-9.559-16.185-13.338-21.97-6.805
		c-0.233,0.214-0.589,0.34-0.842,0.194c-0.347-0.194-0.207-0.619,0.065-0.968c7.323-10.024,21.97-2.403,23.673,7.103
		c0.062,0.292,0.023,0.664-0.123,0.843c-0.126,0.126-0.301,0.158-0.466,0.062C322.046,155.619,321.926,155.473,321.829,155.266
		 M386.721,135.566c-0.171-0.081-0.443-0.094-0.761-0.065c0.058,0.603,0.57,0.887,0.962,0.603
		C386.974,135.731,386.854,135.625,386.721,135.566 M388.421,137.179c-0.891,0.557-2.29,1.101-3.45,0.577
		C382.352,133.781,389.973,132.573,388.421,137.179 M378.18,113.982c1.351-0.081,2.705-0.188,3.932-0.405
		c-1.334-0.272-2.785-0.405-4.191-0.593c-1.733-0.217-3.43-0.521-4.723-1.25c-0.492-1.594-0.664-3.278-0.829-4.985
		c-0.12-1.399-0.233-2.805-0.466-4.097c-0.171,0.683-0.259,1.438-0.298,2.215c-0.059,1.089-0.039,2.19-0.087,3.242
		c-0.065,2.083-0.337,4.075-1.97,4.969c-0.476,0.278-1,0.405-1.525,0.486c-0.538,0.071-1.101,0.078-1.671,0.084
		c-0.897,0.022-1.778,0.042-2.653,0.308c1.082,0.11,2.306,0.104,3.437,0.185c1.412,0.071,2.785,0.292,3.588,1.114
		c0.628,1.419,0.849,3.097,1.021,4.81c0.133,1.312,0.24,2.659,0.431,3.9c0.185-1.341,0.253-2.825,0.34-4.292
		c0.11-1.879,0.278-3.741,0.819-5.247C374.821,114.128,376.492,114.072,378.18,113.982 M375.054,116.045
		c-1.247,5.571-1.46,12.137-2.455,17.935l-0.107,0.573l-0.272-0.512c-1.127-2.057-1.464-5.341-1.762-8.684
		c-0.168-1.665-0.327-3.362-0.57-4.956c-0.22-1.538-0.557-2.964-1.037-4.146c-2.475-0.369-5.088-0.616-7.641-0.92
		c-2.601-0.314-5.14-0.693-7.437-1.335l-0.625-0.171l0.625-0.208c2.274-0.741,4.981-1.039,7.683-1.318
		c1.351-0.126,2.705-0.259,4.013-0.441c1.247-0.178,2.465-0.395,3.589-0.702c0.577-2.76,0.861-5.811,1.211-8.794
		c0.379-3.032,0.803-6.005,1.713-8.525l0.236-0.689l0.139,0.716c1.05,5.102,2.038,11.417,2.258,16.609
		c5.425,1.075,10.925,2.086,16.152,3.358v0.405C386.17,115.323,379.916,115.932,375.054,116.045 M411.398,48.701
		c-0.087,0.113-0.227,0.168-0.317,0.2l-0.201,0.071c-0.065,0.531,0.133,0.771,0.518,0.83c0.094-0.133,0.24-0.198,0.405-0.217
		C411.842,49.093,411.664,48.853,411.398,48.701 M413.31,50.081c-0.292,0.903-1.069,1.276-2.905,1.266
		c-0.266-0.269-0.373-0.395-0.46-0.502c-0.084-0.107-0.178-0.191-0.256-0.272c-0.175-0.179-0.327-0.373-0.392-0.748
		C408.685,46.288,414.297,46.939,413.31,50.081 M301.385,87.423c-0.729-0.791-2.222-0.253-1.873,0.968
		c0.327,0.457,1.513,0.457,1.873,0.02V87.423z M297.809,89.505c-0.589-2.276,0.563-3.517,1.957-3.841
		c1.347-0.305,2.999,0.229,3.378,1.626C304.011,90.474,299.778,91.964,297.809,89.505 M402.239,157.675
		c-0.638,0.373-1.593,0.385-2.17-0.292c-0.412-1.956,1.321-2.442,2.5-1.904C403.259,156.448,402.893,157.264,402.239,157.675
		 M302.764,53.53c-0.327-0.185-0.79-0.236-1.127-0.104c-0.285,0.116-0.518,0.382-0.34,0.968
		C302.126,54.777,302.91,54.492,302.764,53.53 M299.593,54.813c-0.557-2.303,2.433-3.764,4.379-2.238
		C305.741,56.371,300.231,57.604,299.593,54.813 M382.802,156.966c-0.039,0.165-0.12,0.337-0.214,0.496l-0.291,0.557
		c-0.742,0.188-1.066-0.045-1.312-0.343c-0.107-0.133-0.208-0.272-0.285-0.412c-0.094-0.133-0.181-0.227-0.272-0.298l-0.094-0.201
		c0.159-1.059,1.062-2.021,2.342-1.273C382.896,156.23,382.896,156.606,382.802,156.966 M254.964,120.415
		c-0.968,0.732-2.018,0.69-2.64-0.146C252.269,117.769,255.463,118.034,254.964,120.415 M335.844,71.746
		c0.936-0.071,1.95-0.078,2.973-0.101c1.73-0.02,3.437-0.032,4.823-0.369c-0.593-0.146-1.309-0.227-2.099-0.292
		c-1.059-0.094-2.241-0.126-3.382-0.208c-2.228-0.152-4.463-0.489-5.305-1.882c-0.24-0.404-0.353-1.36-0.44-2.371
		c-0.097-1.033-0.159-2.215-0.272-3.135c-0.133-1.127-0.172-2.568-0.266-3.822c-0.065-0.79-0.152-1.467-0.278-1.963
		c-0.13,2.044-0.256,4.101-0.489,6.021c-0.279,2.189-0.709,4.246-1.513,5.937c-2.413,0.865-5.16,1.195-7.595,1.82
		c2.513,0.165,4.525,0.262,6.963,0.375c1.322,1.38,1.688,3.456,1.892,5.62c0.101,1.082,0.172,2.195,0.272,3.284
		c0.081,0.741,0.165,1.47,0.311,2.153c0.301-1.525,0.405-3.242,0.557-4.92c0.182-2.005,0.418-3.987,1.069-5.561
		C333.981,71.953,334.888,71.82,335.844,71.746 M343.047,73.227c-2.831,0.239-5.742,0.404-8.496,0.729
		c-1.341,5.911-1.866,12.645-3.132,18.64l-0.392,0.006c-0.829-2.834-1.279-6.07-1.646-9.36c-0.375-3.223-0.68-6.521-1.279-9.526
		c-2.037-0.343-4.266-0.515-6.394-0.761c-2.209-0.253-4.366-0.57-6.17-1.247l-0.47-0.188l0.463-0.198
		c1.979-0.829,4.227-1.399,6.487-1.917c2.222-0.524,4.473-0.994,6.533-1.671c1.257-6.17,1.487-13.361,2.688-19.56
		c0.512-0.214,0.768-0.094,0.855,0.211c1.082,6.267,1.46,13.234,2.695,19.343c5.299,1.441,10.883,2.575,16.376,3.815l0.026,0.392
		C348.725,72.614,345.927,72.961,343.047,73.227 M391.877,101.172c-0.22,0.055-0.292,0.074-0.379,0.074
		c-0.068,0-0.139-0.02-0.227-0.042c0.013,0.266,0.221,0.405,0.606,0.418V101.172z M392.665,103.103
		c-1.824,0.233-3.025-0.24-3.044-1.513C389.568,98.393,395.962,100.236,392.665,103.103 M307.295,93.79
		c-0.175-1.535,0.83-1.897,1.982-1.897C310.981,93.628,308.335,95.449,307.295,93.79 M431.797,163.512
		c-1.01,0.214-1.448-0.139-1.839-0.457c-0.398-1.843,1.088-2.455,2.248-1.917C432.387,162.2,432.348,163.075,431.797,163.512
		 M323.102,22.818c1.153-0.078,2.268-0.185,3.297-0.379c-1.127-0.178-2.322-0.317-3.511-0.443c-1.532-0.179-3.058-0.363-4.382-0.735
		c-0.563-2.122-0.677-4.412-0.764-6.708c-0.065-1.791-0.133-3.569-0.317-5.234c-0.075,0.544-0.101,1.108-0.133,1.688
		c-0.052,1.066-0.081,2.18-0.113,3.274c-0.071,2.184-0.233,4.341-0.923,5.95c-2.387,0.612-5.098,0.625-7.414,1.023
		c0.981,0.14,1.988,0.253,2.963,0.392c1.38,0.185,2.701,0.417,3.874,0.81c0.658,1.729,0.937,3.595,1.102,5.545
		c0.139,1.646,0.214,3.355,0.327,5.033c0.375-1.228,0.463-2.747,0.538-4.317c0.045-0.969,0.09-1.95,0.185-2.88
		c0.107-0.929,0.252-1.817,0.538-2.588C320.005,22.964,321.569,22.912,323.102,22.818 M323.963,20.337
		c1.435,0.201,2.912,0.317,4.393,0.473c2.931,0.298,5.811,0.703,7.938,1.882l0.499,0.278l-0.557,0.101
		c-5.107,0.874-10.886,1.082-16.146,1.791c-0.829,5.464-1.729,10.886-2.653,16.279l-0.392,0.02
		c-1.399-5.315-2.015-11.343-2.533-17.432c-4.062-0.703-8.087-1.454-11.841-2.468l-0.483-0.133l0.438-0.246
		c1.597-0.875,3.667-1.247,5.83-1.5c2.102-0.252,4.311-0.398,6.296-0.755c0.781-6.037,1.312-12.311,2.471-17.963L317.349,0
		l0.259,0.625c1.036,2.591,1.506,5.736,1.778,9.04c0.291,3.249,0.385,6.672,0.716,9.889
		C321.285,19.92,322.603,20.166,323.963,20.337 M253.83,102.082c-0.505,0.521-1.924,0.521-2.368,0.117
		C251.142,99.5,254.235,99.588,253.83,102.082 M249.344,89.748c-0.078-0.69-0.577-0.946-1.179-0.69
		C248.071,90.014,248.807,90.188,249.344,89.748 M248.14,87.824c1.843-0.509,2.646,0.353,2.743,1.542
		C251.395,94.594,242.526,89.398,248.14,87.824 M276.694,80.734c0.658-0.133,1.354-0.237,2.05-0.344
		c1.069-0.165,2.102-0.333,3.025-0.631c-0.995-0.091-2.115-0.078-3.171-0.114c-1.341-0.045-2.659-0.171-3.583-0.722
		c-0.55-3.563-0.683-7.304-1.247-10.608c-0.094,0.664-0.152,1.36-0.191,2.076c-0.068,1.127-0.081,2.29-0.12,3.443
		c-0.087,2.284-0.266,4.531-1.101,6.145c-0.479,0.259-0.904,0.389-1.354,0.502c-0.443,0.12-0.894,0.207-1.347,0.314
		c-0.603,0.139-1.179,0.271-1.671,0.482l0.431,0.049c0.373,0.045,0.716,0.104,1.076,0.185c0.69,0.126,1.373,0.246,2.222,0.204
		c1.163,1.228,1.189,3.404,1.182,5.58c0,1.108-0.02,2.235,0.045,3.288c0.039,0.719,0.126,1.38,0.285,1.979
		c0.463-3.728,0.803-7.602,1.467-11.139C275.395,81.032,276.03,80.873,276.694,80.734 M282.359,81.505
		c-2.038,0.431-4.12,0.81-5.931,1.464c-1.221,6.799-2.115,13.938-3.369,20.697l-0.139,0.741l-0.259-0.702
		c-0.995-2.773-1.374-6.161-1.558-9.711c-0.182-3.481-0.194-7.151-0.479-10.552c-2.837-0.493-5.704-0.968-8.444-1.551l-0.47-0.107
		l0.405-0.271c1.312-0.81,2.97-1.267,4.616-1.678c0.829-0.214,1.646-0.412,2.461-0.651c0.749-0.227,1.458-0.473,2.103-0.79
		c0.259-7.702,1.247-14.692,2.494-21.4l0.392-0.02c0.816,2.973,1.221,6.361,1.5,9.866c0.279,3.437,0.437,6.99,0.754,10.381
		c3.689,0.849,7.696,1.387,11.608,2.002l0.57,0.101l-0.502,0.278C286.498,80.543,284.435,81.055,282.359,81.505 M236.317,77.34
		c-0.165,0.185-0.178,0.298-0.159,0.463l0.052,0.492c0.006,0.11,0.006,0.224,0,0.331c0.557,0.214,1.082,0.146,1.386-0.185
		C237.69,77.505,236.761,77.061,236.317,77.34 M237.888,80.277c-4.868,2.831-3.861-8.185,0.956-3.481
		C238.918,78.625,238.824,79.74,237.888,80.277 M423.525,124.191c-0.036-0.114-0.075-0.169-0.152-0.201
		c-0.081,0.126-0.113,0.324-0.081,0.479c0.026,0.123,0.101,0.229,0.266,0.243C423.564,124.496,423.564,124.33,423.525,124.191
		 M424.095,122.824c0.69,0.178,1.007,1.14,0.761,2.996C420.082,127.109,422.11,122.293,424.095,122.824 M273.896,113.344
		c-0.259,0.013-0.47,0.026-0.632,0.094c-0.139,0.052-0.217,0.159-0.204,0.369c-0.013,0.227,0.065,0.334,0.204,0.379
		c0.081,0.036,0.194,0.062,0.314,0.075l0.317,0.025C274.061,114.047,274.061,113.577,273.896,113.344 M271.826,115.323
		c-1.412-2.549,1.62-4.266,3.43-2.808C276.642,115.063,273.565,116.735,271.826,115.323 M330.04,120.097l-0.071,0.247
		c-0.029,0.178-0.02,0.204,0,0.285l0.058,0.227h0.797C330.888,120.249,330.651,120.016,330.04,120.097 M332.083,122.04
		c-1.02,0.765-3.031,0.758-3.543-0.463c-0.272-2.335,1.746-3.404,3.469-2.277C332.414,120.11,332.414,121.299,332.083,122.04
		 M290.148,52.352c-0.094-0.068-0.22-0.114-0.385-0.175l-0.311-0.09l-0.188,0.259c-0.159,0.259-0.21,0.431-0.159,0.735
		c0.253,0.191,0.969,0.191,1.215,0C290.427,52.623,290.288,52.455,290.148,52.352 M287.891,54.473
		c-1.179-2.727,1.593-4.797,3.65-3.031C292.947,54.113,289.815,55.934,287.891,54.473 M416.639,85.696
		c1.095-0.059,2.122-0.14,3.044-0.344c-1.121-0.2-2.254-0.385-3.355-0.605c-1.393-0.285-2.733-0.615-3.961-1.053
		c-1.16-1.435-1.52-3.469-1.785-5.535c-0.132-1.027-0.239-2.089-0.385-3.109c-0.071-0.45-0.146-0.888-0.246-1.315
		c-0.006,3.246-0.389,6.125-0.25,9.536c-1.169,0.854-2.536,1.211-3.941,1.516c-1.027,0.227-2.122,0.415-3.139,0.664
		c0.891,0.113,1.813,0.252,2.733,0.366c1.241,0.152,2.462,0.266,3.443,0.185c1.088,1.422,1.46,3.245,1.658,5.195
		c0.178,1.665,0.214,3.469,0.311,5.186c0.162-0.489,0.252-1.059,0.333-1.658c0.126-0.939,0.159-1.969,0.21-2.996
		c0.068-2.05,0.159-4.159,0.949-5.607C413.714,85.81,415.204,85.777,416.639,85.696 M421.089,87.144
		c-2.468,0.178-5.02,0.285-7.355,0.615c-1.176,5.153-1.532,11.152-2.222,16.804l-0.081,0.622l-0.317-0.55
		c-1.214-2.222-1.771-5.095-2.196-8.065c-0.412-2.912-0.709-5.95-1.393-8.596c-1.982-0.379-4.159-0.573-6.242-0.842
		c-2.138-0.272-4.207-0.645-5.898-1.422l-0.551-0.236l0.583-0.143c4.14-0.92,8.02-2.121,12.298-2.905
		c0.34-6.173,0.625-12.408,1.811-17.75l0.162-0.742l0.224,0.735c1.69,5.432,2.005,12.23,3.582,17.756
		c4.625,1.296,9.811,2.031,14.595,3.139l0.677,0.159l-0.645,0.227C426.071,86.671,423.622,86.956,421.089,87.144 M400.133,69.948
		c-0.039-0.071-0.058-0.139-0.11-0.239l-0.162-0.272c-0.703-0.045-1.02,0.194-1.02,0.771c0.191,0.045,0.366,0.113,0.557,0.166
		c0.178,0.045,0.405,0.074,0.677,0.045C400.163,70.182,400.163,70.055,400.133,69.948 M397.076,70.632
		c-0.285-1.771,2.17-2.899,3.887-2.254C403.891,71.675,397.588,73.631,397.076,70.632 M350.001,64.05
		c0.224,0.068,0.502,0.023,0.696-0.09c-0.081-0.544-0.437-0.671-0.975-0.454C349.642,63.846,349.807,63.992,350.001,64.05
		 M352.242,63.827c-0.019,1.57-2.183,2.38-3.721,1.285C347.002,61.479,352.249,61.087,352.242,63.827 M434.104,113.781
		c-1.717-0.389-1.5-2.779-0.026-3.33C436.951,109.37,437.051,114.458,434.104,113.781"/>
	<path fill-rule="evenodd" clip-rule="evenodd" fill="#FDC40E" d="M72.433,419.881c0.942,0.771,1.347,0.337,0.709-0.33
		c-11.754-11.771-35.554-8.868-43.853,1.373C41.809,412.029,61.116,411.285,72.433,419.881 M52.31,403.848
		c3.54-5.473,14.932-7.974,28.694-11.284l1.101-0.271c8.049-1.341,7.184,18.15,14.779,18.733c1.785-0.02,1.386-0.797-0.052-0.797
		c-1.836-0.143-2.721-2.318-3.518-5.169c2.131-4.017,6.701-8.415,9.804-11.557c1.859-1.859,3.55-3.563,4.564-4.987
		c0.392-0.545,1.84-2.449,1.334-3.414c0.803-0.246,1.613-0.486,2.416-0.732c9.085,7.645-7.087,15.313-9.037,23.119
		c-0.278,1.419,0.645,2.74,1.315,0.098c0.279-1.127,0.92-2.268,1.755-3.388c5.665,11.479-5.166,15.171-13.098,19.317
		c-9.024,4.729-9.62,10.306-14.873,17.904c-3.317,4.774-7.799,8.415-17.506,7.326c3.624-3.873,3.602-9.191-1.134-12.586
		c-1.063-0.615-2.115-0.149-0.392,0.913c3.589,2.578,3.411,6.698,0.094,10.041c-3.323,3.368-9.724,5.72-17.905,3.964
		c-22.281-4.78-12.496-18.15-5.629-17.626c1.671,0,1.512-1.063,0.375-1.095c-4.716-0.13-8.224,1.697-10.07,4.373
		c-11.327-14.66,12.849-38.059,44.539-30.129c2.407,0.608,1.95-0.603,0.379-1.063C63.944,403.971,57.894,403.479,52.31,403.848
		 M157.659,385.808c-0.57-1.905-0.874-3.874-0.748-5.597c0.178-0.882-0.207-1.102-0.44,0.104
		c-0.952,4.923-0.139,10.268,3.207,13.927c-1.95,2.332-3.777,4.853-5.455,7.605c-0.437,0.738-0.191,1.425,0.752,0.194
		c8.716-11.239,21.001-19.959,30.365-22.932c9.315-2.954,12.651-0.11,10.164,5.934c-9.885,2.954-19.975,9.328-25.653,15.741
		c-0.988,1.373,0.418,0.317,0.418,0.317c13.698-12.159,40.762-21.15,47.263-11.278c-13.007,0.117-27.732,6.466-30.592,11.168
		c0,0-0.424,1.05,0.748,0c10.456-8.485,40.205-15.307,47.172-0.654c-0.998,0.208-2.038,0.506-3.093,0.9
		c-1.717,0.92-1.444,1.309,0.266,0.92c15.608-3.802,25.04,8.849,7.151,15.741c-9.299,3.563-18.203,3.446-23.414,1.438
		c-4.784-1.84-6.232-5.033,0-8.331c1.186-0.259,1.83-1.179-0.525-0.518c-6.556,1.678-6.84,5.985-3.576,8.888
		c-10.546,3.109-18.501,1.528-25.97-0.479c-8.052-2.164-15.382-4.69-23.92-4.625c-7.083,0.052-13.633-0.738-17.97-2.216
		c-4.152-1.399-5.859-3.705-4.026-8.046c1.862-4.404,4.862-8.129,6.627-12.489c0.243,2.073,0.648,4.314,1.228,6.673
		c0.648,2.384,1.312,1.587,1.053-0.11c-3.019-12.386,0.094-19.68,3.696-23.197c3.388-3.33,8.039-3.589,11.767,1.858
		C161.177,380.981,158.615,384.512,157.659,385.808 M224.304,286.449c0.221,1.678,0.405,3.343,0.531,4.981
		c1.082,6.53,3.43,12.075,6.109,15.638c3.492,4.645,7.948,4.891,9.691,3.246c3.193-3.006,5.144-21.857-9.989-31.405
		c0,0-1.445-1.043-2.19-1.14c-0.032,0.453-0.052,1.321-0.133,1.723c0.991,0.453,3.113,2.229,3.113,2.229
		c3.482,3.122,6.135,7.838,5.976,12.256c-0.065,1.82-0.774,2.954-1.982,3.473c1.153,0.997,2.546,1.6,2.97-0.564
		c0.751-3.226,1.247-2.229,0.917,0.162c-0.835,4.243-3.323,3.466-5.321,1.646c-3.521-3.2-5.928-10.157-7.045-15.884
		c-0.709,0.92-1.642,1.568-2.711,1.924C224.252,285.322,224.271,285.886,224.304,286.449 M220.032,283.645
		c3.43,0.777,6.74-1.341,6.562-6.42c-0.233-6.102-6.41-5.998-7.449-2.85C220.922,277.445,220.184,282.479,220.032,283.645
		 M189.44,311.312c11.083,10.352,29.75-18.89,29.206-30.835c-0.888,0-1.723,0.026-2.614,0.078
		c-0.709,5.7-5.736,13.065-10.672,17.581c-2.559,2.352-5.464,3.983-7.589,4.392c-2.627,0.531-3.203-0.972-3.103-4.178
		c0.217-1.639,0.862-1.082,0.894-0.026c-0.078,2.313,0.703,2.571,1.759,2.384c-0.709-0.512-0.748-1.393-0.379-2.546
		c1.853-5.597,11.628-13.409,17.008-15.838c0.175-0.57,0.308-1.121,0.392-1.659l-0.768,0.059
		c-5.373,1.348-12.995,6.199-18.792,12.386C188.445,299.846,185.262,307.418,189.44,311.312 M156.639,294.968
		c15.482-10.683,50.777-16.253,61.504-16.693c0.12-0.505-0.677-3.097-0.677-3.097C208.125,275.229,177.077,280.646,156.639,294.968
		 M249.558,89.832c-0.622,0.59-1.791,0.477-1.578-0.903C248.761,88.518,249.519,88.883,249.558,89.832 M350.895,64.047
		c-0.444,0.425-1.652,0.34-1.351-0.684C350.241,63.046,350.85,63.179,350.895,64.047 M301.585,87.345v1.14
		c-0.398,0.603-1.859,0.603-2.264,0C298.784,86.752,300.908,86.503,301.585,87.345 M273.989,113.127c0.317,0.305,0.317,1.075,0,1.36
		c-0.576-0.026-1.169-0.039-1.133-0.677C272.82,113.182,273.413,113.159,273.989,113.127 M329.874,119.919
		c0.904-0.159,1.279,0.214,1.127,1.137h-1.127C329.709,120.356,329.709,120.615,329.874,119.919 M399.998,69.242
		c0.292,0.59,0.496,0.684,0.23,1.357c-0.748,0.143-1.066-0.152-1.597-0.224C398.569,69.479,399.068,69.148,399.998,69.242
		 M411.314,48.432c0.476,0.194,0.78,0.557,0.667,1.36c-0.266-0.039-0.398,0.045-0.45,0.233c-0.622-0.042-0.962-0.404-0.9-1.137
		C410.815,48.691,411.253,48.756,411.314,48.432 M385.749,135.304c0.807-0.062,1.558-0.062,1.345,0.9
		C386.417,136.823,385.727,136.078,385.749,135.304 M289.365,51.83c0.577,0.256,1.441,0.236,1.134,1.356
		c-0.292,0.321-1.28,0.321-1.584,0C288.75,52.406,289.174,52.234,289.365,51.83 M236.21,77.168c0.625-0.398,1.752,0.253,1.581,1.367
		c-0.405,0.499-1.134,0.524-1.804,0.21C236.113,78.275,235.708,77.262,236.21,77.168 M383.022,113.587
		c-2.873,0.716-6.854,0.576-9.493,0.9c-1.069,2.944-0.628,7.368-1.354,10.633c-0.677-3.113-0.47-7.058-1.577-9.723
		c-1.506-1.52-5.183-0.871-7.702-1.354c2.283-1.082,4.735-0.139,6.562-1.127c3.032-1.681,1.121-7.443,2.487-11.093
		c0.684,3.019,0.564,6.827,1.351,9.727C375.79,112.981,379.945,112.735,383.022,113.587 M282.579,79.649
		c-2.157,1.007-5.438,0.894-7.683,1.811c-0.716,3.815-1.046,8.006-1.578,11.993c-1.418-3.219,0.272-9.36-1.593-11.543
		c-1.736,0.094-2.818-0.496-4.521-0.45c1.299-0.881,3.475-0.895,4.975-1.578c1.623-3.139,0.703-8.797,1.584-12.671
		c0.758,3.543,0.849,7.741,1.354,11.534C276.862,79.801,280.192,79.264,282.579,79.649 M420.581,85.314
		c-2.231,0.791-5.548,0.476-8.146,0.904c-1.506,2.792-0.36,8.224-1.804,11.083c-0.308-4-0.074-8.531-1.804-11.083
		c-2.018,0.129-4.91-0.44-7.252-0.677c2.582-0.816,5.83-0.949,7.913-2.277c-0.146-3.926,0.398-7.158,0.233-11.077
		c1.267,3.404,0.664,8.696,2.714,11.311C414.867,84.384,417.773,84.802,420.581,85.314 M344.343,71.276
		c-3.025,1.056-8.039,0.107-11.077,1.137c-1.296,3.084-0.937,7.819-1.811,11.317c-1.043-3.709-0.253-9.257-2.501-11.777
		c-2.827-0.11-5.043-0.239-8.139-0.443c2.711-0.849,5.943-1.153,8.603-2.031c1.578-3.329,1.71-8.097,2.038-12.674
		c0.735,0.807,0.615,4.324,0.9,6.559c0.233,1.853,0.246,4.716,0.677,5.442C334.577,71.364,341.438,70.156,344.343,71.276
		 M327.38,22.417c-2.54,0.709-5.905,0.596-8.83,0.907c-1.088,2.98-0.259,7.89-1.577,10.627c-0.305-3.913-0.305-8.139-1.354-11.31
		c-2.322-0.774-5.253-0.927-7.926-1.351c2.526-0.645,5.762-0.564,8.37-1.127c1.36-3.174,0.605-8.447,1.36-12.221
		c0.703,4.026,0.304,9.202,1.127,13.115C321.213,21.798,324.582,21.812,327.38,22.417 M302.942,53.42
		c0.272,1.334-0.913,1.574-1.804,1.121C300.636,53.103,302.188,52.876,302.942,53.42 M392.075,100.916v0.907
		c-0.735,0.062-1.088-0.266-1.134-0.907C391.644,101.081,391.372,101.081,392.075,100.916 M423.292,123.767
		c0.499,0.042,0.499,0.563,0.444,1.134C422.968,125.069,422.936,124.101,423.292,123.767"/>
	<path fill-rule="evenodd" clip-rule="evenodd" fill="#2A8AC3" d="M90.597,102.429c0.266,11.369,7.569,18.187,14.951,19.647
		c5.539,1.088,11.152-0.797,14.019-6.209C108.415,111.828,98.95,107.251,90.597,102.429 M109.079,165.947
		c1.583,0.962,3.032,2.024,4.405,3.227c5.578,4.881,9.652,11.793,11.311,19.725c3.096-10.141,8.855-20.003,15.793-28.509
		c4.684-5.71,9.895-10.812,15.19-14.951c3.152-2.461,6.313-4.577,9.426-6.29c10.387-5.729,20.104-6.977,25.698-1.159
		c6.646-13.102-9.526-32.425-37.4-18.235C137.085,128.104,114.662,148.13,109.079,165.947 M107.073,164.833
		c5.549-19.734,21.001-32.914,35.59-42.1c-5.885-1.415-11.388-2.967-16.551-4.632c1.247,13.215-9.963,24.267-24.079,21.805
		c-16.431-2.866-25.26-20.519-13.173-38.388c-5.979-3.634-11.45-7.311-16.551-10.977c-1.917,0.11-4.451,0.229-6.462,0.262
		c-3.229,0.042-7.032-0.025-9.646-0.508c-1.134,6.034-3.255,10.983-6.329,15.945c-0.703,1.147-2.407,1.785-2.617-0.417
		c-0.233-2.303-0.538-5.205-0.852-7.45c-0.159-1.179-0.994-7.171-1.856-8.343c-0.716-0.311-3.355-1.435-6.394-2.5
		c-3.615-1.279-7.815-2.536-10.582-2.633c-2.837-0.227-1.286-1.52-0.272-1.833c0.962-0.395,3.323-1.14,6.779-2.54
		c1.169-0.47,6.151-2.5,7.106-3.641c0.146-1.833-2.53-8.923-4.175-13.075c-3.064-1.312-5.393-1.312-7.343,0.1
		c-9.198,6.66-5.483,36.024,13.083,68.024c-1.127-5.532-2.19-12.039-2.854-16.159c-0.191-1.273,0.968-1.558,1.924-0.596
		c3.569,3.541,8.881,8.59,11.356,9.539c1.891-4.133,8.431-11.729,12.512-16.344c0.603-0.696,1.532-0.405,1.458,0.667
		c-0.437,6.728-1.237,21.559,0.075,23.836c1.892,3.375,10.999,9.088,16.279,12.224c0.797,0.466,0.962,1.435-0.651,1.732
		c-2.063,0.386-4.923,0.888-7.262,1.173c-3.67,0.447-8.088,0.771-11.291,0.272c-0.146,4.703,0.304,9.626,0.823,14.436
		c2.419,2.724,4.962,5.419,7.621,8.059c5.606-5.646,13.021-9.102,21.228-9.102C98.649,161.669,103.103,162.819,107.073,164.833"/>
	<path fill-rule="evenodd" clip-rule="evenodd" fill="#F16481" d="M177.433,224.796c0.564,0.804,1.069,1.723,1.435,2.753
		c0.292,1.066-0.305,1.095-0.684,0.159c-2.164-5.28-7.449-6.507-11.728-5.552c4.881,9.769,14.983,13.976,23.129,10.598
		C187.438,225.411,181.673,222.13,177.433,224.796"/>
	<path fill-rule="evenodd" clip-rule="evenodd" fill="#E3203B" d="M66.726,304.82c-0.855-0.894-1.632-2.008-2.248-3.381
		c-1.328,0.719-2.633,1.645-3.899,2.733l-0.006,1.23c0,21.662,9.101,39.425,20.282,42.845c1.24,0.331,2.461,0.454,3.663,0.441
		c8.988-0.486,17.646-9.478,22.002-20.335c0.146-0.369,0.298-0.731,0.431-1.101c1.966-5.384,2.886-10.993,2.361-16.254
		c-0.171-1.813,1.169-1.664,1.328-0.22c0.278,2.63,0.259,5.396-0.081,8.194c14.119-28.982,36.082-40.921,54.933-46.543
		c2.203-0.674,2.222,0.828,0.47,1.347c-1.61,0.531-3.288,1.264-4.981,1.918c-0.988,2.118-1.228,5.493-2.893,7.922
		c-1.804,2.624-3.375,5.837-2.147,9.205c15.596-10.507,44.516-19.771,61.815-19.511c2.157-4.438,9.063-3.492,10.475,2.072
		c1.678-1.321,0.146-11.803-0.113-13.137c-1.234-6.374-3.171-12.917-5.202-16.117c-1.059,3.628-3.064,6.944-6.128,9.419
		c-13.253,10.423-33.643-1.762-50.142-8.214c-1.153,0.44-2.287,0.868-3.437,1.27c-28.503,10.313-53.207,13.409-65.583,17.763
		c1.425,1.567,2.413,3.083,3.116,4.067c1.999,3.271,3.006,6.575-1.053,1.089c-4.165-5.7-9.347-9.043-14.866-9.043
		c-5.04,0-9.837,2.831-13.798,7.708c1.905,0.648,3.77,1.478,5.581,2.475c8.59-7.339,18.446,1.646,20.004,10.248
		c1.215,2.935,2.183,6.277,2.854,9.808c1.334,0.363,2.86,0.544,4.658,0.531c8.69-0.077,9.167,17.102-4.055,19.155
		c0.068,20.736-10.565,27.68-24.017,23.119c-3.067-0.881-1.309-1.839,0.33-1.036c2.944,1.036,5.564,1.302,7.887,0.972
		C74.674,334.878,67.296,324.371,66.726,304.82 M163.953,246.332c-0.738-0.272-1.46-0.525-2.189-0.745
		c-6.267-2.009-11.045-2.202-14.083-0.829c-0.729,0.201-0.609-0.137-0.094-0.447c18.5-8.777,49.333,23.677,67.581,9.296
		c10.986-8.875,7.132-29.229-4.807-32.833c-2.912,4.074-6.656,8.486-10.536,11.896c-0.995,1.425-2.083,2.666-3.216,3.725
		c5.069,0.586,10.64-0.437,13.665-6.931c0.544-1.199,1.228-0.816,0.849,0.327c-3.051,9.121-10.666,9.292-16.477,8.217
		c-10.721,7.722-25.705,2.111-34.275-7.825c-0.79-0.042-1.574-0.088-2.348-0.149c-0.033,1.542-1.234,2.76-2.543,3.729
		c-6.06,4.524-13.875,6.85-12.609,16.554c0.188,1.321,0.412,2.216,0.538,2.649c6.102-1.717,12.531-3.725,19.152-6.135
		L163.953,246.332z M249.344,186.871c4.25-4.609,7.806-8.563,9.982-11.006c2.692-3.032,5.286-3.135,7.349-0.396
		c1.785,2.355,3.09,6.718,3.987,11.978c1.811,10.594,1.785,25.173,0.039,37.161c-0.237,1.156-0.93,1.752-0.59-0.033
		c2.196-11.728,0.463-26.414-1.299-36.811c-0.903-5.244-2.17-9.199-3.644-11.168c-1.208-1.587-2.439-1.911-4.405,0.45
		c-18.407,22.167-32.49,35.434-44.522,44.429c7.058,4.949,8.943,14.66,7.045,23.21c0.764,0.706,1.5,1.729,2.209,2.974
		c5.14-7.605,15.404-15.263,29.52-16.61c3.051,0,3.813,1.059,0.185,1.059c-3.563,0.34-7.077,1.36-10.354,2.802
		c1.593,18.397,10.202,22.4,15.165,20.937c11.841-3.446,18.433-24.233,20.159-45.349c2.235-26.857-2.229-40.561-7.894-45.225
		C266.106,158.621,251.232,166.242,249.344,186.871"/>
	<path fill-rule="evenodd" clip-rule="evenodd" fill="#E3203B" d="M234.212,312.827c-0.347-0.207-0.677-0.453-1.023-0.687
		c-4.266-3.207-6.957-9.244-8.133-12.671c-0.412,16.26-6.193,30.368-17.212,39.71c1.014,4.158-2.562,9.341-7.975,13.072
		c-1.538,3.951-4.33,9.134-6.963,13.701C216.414,348.203,229.214,328.828,234.212,312.827 M232.201,284.901
		c-1.26-1.808-2.64-3.647-4.185-4.107c1.273,8.888,6.458,15.689,6.737,15.994C236.865,296.257,235.576,289.753,232.201,284.901
		 M94.273,365.635c-14.427,13.565-31.078,23.723-52.556,24.201c-3.469,0.039-1.846-1.217-0.035-1.27
		c8.107-0.207,15.576-2.033,22.543-5.026c2.4-1.036,4.755-2.189,7.022-3.491c1.917-1.082,3.764-2.229,5.587-3.466
		c-35.723-0.208-77.683,18.708-74.554,30.563c1.182,4.495,9.189,7.242,23.132,7.722c5.166-5.26,13.471-9.38,23.547-10.688
		c3.012-8.784,17.905-10.261,31.819-13.604c19.709-4.742,37.355-10.831,56.008-19.097c30.877-13.694,72.07-49.537,80.291-78.279
		c-5.966,13.52-19.868,28.775-29.189,19.797c-5.432-5.234-0.405-14.614,5.678-21.092c4.113-4.38,9.131-8.092,13.778-10.43
		c-17.053,2.487-40.13,8.239-52.51,15.715c-5.14,3.259-10.627,8.681-16.431,15.768C124.447,330.02,110.944,350.011,94.273,365.635
		 M213.321,284.001c-5.085,2.94-13.053,10.144-14.585,14.757c-0.353,1.049-0.166,1.243,0.411,1.27
		c1.38-0.713,3.012-1.892,4.729-3.473C207.63,293.121,211.458,288.314,213.321,284.001"/>
	<path fill-rule="evenodd" clip-rule="evenodd" fill="#1C6BB2" d="M177.125,348.851c30.501-2.831,47.305-26.112,46.058-57.076
		c-0.321-2.138-0.519-4.373-0.558-6.698c-0.835,0.078-1.707,0.013-2.607-0.194C219.407,304.633,199.973,329.502,177.125,348.851
		 M206.354,340.358c-7.854,6.219-17.38,9.853-30.174,10.546c-0.259,2.812,2.97,6.258,14.407,3.207
		C200.277,351.526,206.551,344.75,206.354,340.358"/>
	<path fill-rule="evenodd" clip-rule="evenodd" fill="#92C3E9" d="M105.201,123.929c-7.676-1.506-15.064-8.14-16.317-18.877
		c-8.998,15.907-0.739,30.515,13.471,32.989c13.095,2.286,23.476-8.162,21.798-20.577c-0.942-0.321-1.878-0.638-2.792-0.962
		C118.147,122.844,111.589,125.182,105.201,123.929 M46.045,88.867c1.616,2.121,2.672,12.483,2.963,15.343
		c2.899-4.91,4.881-10.575,5.639-16.227c4.616,1.228,10.494,1.023,15.243,0.81c-10.831-7.907-19.8-16.503-26.288-21.089
		c-1.467-1.033-2.811-1.908-4.052-2.617c1.357,3.476,4.071,10.617,3.369,12.554c-1.076,2.145-9.173,5.069-11.456,5.924
		c4.703,1.049,9.38,2.808,13.791,4.716C45.634,88.4,45.883,88.66,46.045,88.867 M45.773,136.946
		c4.861,7.793,10.604,15.673,17.244,23.369c-0.424-4.758-0.868-9.587-0.412-14.342c5.72,1.393,11.975,0.412,17.727-0.563
		c-4.056-2.48-12.736-8.006-14.767-11.608c-1.551-2.74-0.758-17.348-0.499-21.843c-3.025,3.527-9.5,10.958-10.578,14.779H53.77
		c-2.186,0-6.624-3.987-8.185-5.386c-1.253-1.121-2.433-2.229-3.381-3.139C42.787,121.688,44.387,131.339,45.773,136.946"/>
	<path fill-rule="evenodd" clip-rule="evenodd" fill="#7D2618" d="M95.19,290.608c0.722,0.557,1.512,1.023,2.374,1.425
		c-0.266-1.567-0.596-3.084-0.975-4.541C96.33,288.613,95.886,289.662,95.19,290.608 M97.684,312.574
		c-5.418-0.07-10.627-3.518-13.458-7.806c-3.278,2.786-10.138,4.703-15.21,1.84c1.166,19.505,10.294,29.539,19.23,27.551
		c5.02-1.102,9.915-9.406,9.519-21.585H97.684z M144.629,392.039c0.616-1.173,1.141-2.357,1.513-3.589
		c-0.34-7.372,1.49-12.58,4.558-15.586c4.311-4.224,10.4-3.4,14.604,2.241c4.911-7.073,10.488-15.488,11.735-18.856
		c-2.015-1.114-2.97-2.909-2.627-5.15c-12.211,10.002-25.212,18.333-36.736,23.443c-8.104,3.596-16.052,6.543-24.04,9.114
		c0.278,0.208,0.586,0.479,0.936,0.816c6.607,6.679-2.533,12.405-7.78,18.158c0.278,0.414,0.544,0.828,0.777,1.23
		C120.117,400.642,132.629,396.703,144.629,392.039 M165.611,220.132c4.508-0.93,7.971,0.24,10.896,3.349
		c5.924-3.521,12.512,0.855,13.792,8.962c4.139-1.976,7.563-6.792,8.875-12.072c-10.332,1.937-21.685-0.029-35.401-7.664
		C164.069,215.549,164.662,217.816,165.611,220.132"/>
	<path fill-rule="evenodd" clip-rule="evenodd" fill="#FFFFFF" d="M194.982,179.191c-0.091,0.185-0.21,0.366-0.35,0.544
		c-2.575,3.291-10.222,1.969-16.094-2.607c-5.875-4.596-9.597-11.482-7.022-14.773c2.578-3.297,10.261-2.196,16.205,2.986
		l0.398,0.311c-1.348-0.033-2.575,0.373-3.456,1.26c-2.203,2.202-1.422,6.556,1.743,9.723
		C189.093,179.324,192.627,180.286,194.982,179.191 M190.531,160.597c-4.324-4.165-6.565-9.033-4.696-11.255
		c1.866-2.235,7.097-0.917,11.709,2.944c0.735,0.625,1.464,1.328,2.164,2.07c-1.257-0.198-2.442,0.049-3.285,0.816
		c-1.885,1.684-1.428,5.24,1.001,7.938c1.759,1.953,4.065,2.935,5.924,2.682C200.362,167.039,194.405,164.306,190.531,160.597
		 M299.253,147.816c-0.583,0.729,0.064,0.868,0.45,0.496c5.924-6.672,19.21-2.766,22.293,6.866c0.405,0.749,0.664,0.221,0.557-0.359
		C320.863,145.399,306.405,137.999,299.253,147.816 M280.545,145.698c-1.477-8.603,9.163-11.42,10.258-16.839
		c1.412-6.98-13.587-13.574-4.93-20.347c9.438-7.369,28.286,10.987,17.487,21.552c-0.836,0.758-0.573,1.674,0.654,0.677
		c0.784-0.803,1.454-1.616,2.005-2.462c5.331,1.367,8.722,8.221,15.722,10.602c22.433,7.634,30.252,14.031,28.959,23.204
		c-3.854-4.816-11.025-8.907-19.317-11.083c-1.412-0.259-2.306,0.894-0.515,1.153c11.109,1.911,21.921,11.557,26.358,21.16
		c3.563,7.708-2.083,11.683-7.375,8.835c1.386-1.962,1.38-5.078,0.214-8.217c-1.733-4.603-9.361-10.828-23.683-14.248
		c-1.292-0.175-1.069,1.234-0.126,1.279c14.044,3.343,20.399,9.48,21.996,13.772c2.131,5.691,0.087,8.395-3.268,9.027
		c-3.55,0.677-8.917-0.729-13.014-4.438c-15.563-14.096-20.804-2.442-30.818-7.786c2.97-5.416,3.216-13.124-1.513-19.822
		C294.178,143.942,286.822,141.892,280.545,145.698 M78.202,273.604c9.493-7.845,19.57,11.473,15.913,16.085
		c-2.261-2.086-4.078-4.91-6.591-7.903C84.631,278.352,81.499,275.67,78.202,273.604 M71.814,300.014
		c1.911,0.435,1.911-0.531,0.311-1.01c-17.008-2.863-26.851,30.672-36.283,20.981c6.698-6.679,11.148-18.151,21.824-22.848
		c2.74-1.27,1.856-2.234-0.605-1.27c-8.907,4.022-13.393,10.378-18.598,17.821c-13.594,19.504-22.634-2.585-9.202-14.142
		c7.524-3.395,15.55-10.572,22.951-12.38c2.84-0.758,2.196-2.053-0.628-1.412c-7.411,2.326-12.671,6.083-17.559,9.05
		c-6.41,3.919-11.55,5.96-15.411,1.036c-9.85-12.541,42.472-39.074,64.41-16.453c2.108,2.189,3.835,4.689,5.62,7.132
		c4.178,5.662,7.819,8.356,15.243,8.285c6.342-0.052,6.84,14.407-4.988,15.554c-6.831,0.654-14.141-4.678-15.395-10.125
		c-0.479-2.054-1.652-2.203-1.208,0.214c0.259,1.127,0.729,2.261,1.328,3.343c-3.942,2.967-13.169,3.646-17.798-3
		C67.75,299.988,69.745,299.651,71.814,300.014 M285.753,176.419c1.823-2.348,4.032-5.182,6.322-8.081
		c-0.159,1.771-0.589,3.563-1.347,5.296c0,0-0.14,0.696,0.34,0.039c6.744-9.001-0.664-26.857-12.723-18.64
		c-0.619,0.531-0.405,0.836,0.35,0.424c0.589-0.359,1.175-0.638,1.752-0.829c-0.732,0.975-2.429,3.252-4.165,5.519
		c-2.536-12.013,11.9-20.875,21.403-7.355C306.968,165.97,296.468,180.225,285.753,176.419"/>
</g>
</svg>
